<?xml version="1.0" encoding="UTF-8"?>
<!--Generator: Apple Native CoreSVG 326-->
<!DOCTYPE svg
PUBLIC "-//W3C//DTD SVG 1.1//EN"
       "http://www.w3.org/Graphics/SVG/1.1/DTD/svg11.dtd">
<svg version="1.1" xmlns="http://www.w3.org/2000/svg" xmlns:xlink="http://www.w3.org/1999/xlink" viewBox="0 0 267.09 179.785">
 <g>
  <rect height="179.785" opacity="0" width="267.09" x="0" y="0"/>
  <path d="M82.9102 0.0976562C37.4023 0.0976562 0 52.2461 0 116.309C0 146.484 8.10547 179.785 17.8711 179.785C25.3906 179.785 31.543 169.629 32.3242 159.57C17.3828 155.176 6.34766 141.309 6.34766 125C6.34766 115.234 10.1562 106.543 17.0898 99.707C20.4102 55.4688 49.0234 16.6992 81.9336 16.6992C101.66 16.6992 110.645 31.4453 110.645 58.6914L32.0312 99.707C20.6055 105.664 15.332 115.039 15.332 125C15.332 139.746 27.4414 151.855 42.1875 151.855C49.3164 151.855 54.1016 150.098 64.3555 144.531L103.809 122.852C121.094 113.379 127.246 101.855 127.246 77.4414L127.246 55.8594C127.246 21.582 112.207 0.0976562 82.9102 0.0976562ZM41.5039 141.895C32.1289 141.895 24.5117 134.277 24.5117 125C24.5117 115.723 32.1289 108.105 41.5039 108.105C50.7812 108.105 58.3984 115.723 58.3984 125C58.3984 134.277 50.7812 141.895 41.5039 141.895ZM41.5039 135.352C47.168 135.352 51.7578 130.664 51.7578 125C51.7578 119.336 47.168 114.648 41.5039 114.648C35.7422 114.648 31.1523 119.336 31.1523 125C31.1523 130.664 35.7422 135.352 41.5039 135.352ZM184.18 0.0976562C154.883 0.0976562 139.844 21.582 139.844 55.8594L139.844 77.4414C139.844 101.855 145.996 113.379 163.184 122.852L202.734 144.531C212.988 150.098 217.773 151.855 224.902 151.855C239.648 151.855 251.758 139.746 251.758 125C251.758 115.039 246.484 105.664 234.961 99.707L156.445 58.6914C156.445 31.4453 165.43 16.6992 185.156 16.6992C218.066 16.6992 246.68 55.4688 250 99.707C256.934 106.543 260.742 115.234 260.742 125C260.742 141.309 249.609 155.176 234.668 159.57C235.449 169.629 241.699 179.785 249.219 179.785C258.984 179.785 267.09 146.484 267.09 116.309C267.09 52.2461 229.688 0.0976562 184.18 0.0976562ZM225.586 141.895C216.309 141.895 208.691 134.277 208.691 125C208.691 115.723 216.309 108.105 225.586 108.105C234.961 108.105 242.578 115.723 242.578 125C242.578 134.277 234.961 141.895 225.586 141.895ZM225.586 135.352C231.348 135.352 235.938 130.664 235.938 125C235.938 119.336 231.348 114.648 225.586 114.648C219.922 114.648 215.234 119.336 215.234 125C215.234 130.664 219.922 135.352 225.586 135.352Z" fill="black" fill-opacity="0.85"/>
  <path d="M41.5039 141.895C32.1289 141.895 24.5117 134.277 24.5117 125C24.5117 115.723 32.1289 108.105 41.5039 108.105C50.7812 108.105 58.3984 115.723 58.3984 125C58.3984 134.277 50.7812 141.895 41.5039 141.895ZM41.5039 135.352C47.168 135.352 51.7578 130.664 51.7578 125C51.7578 119.336 47.168 114.648 41.5039 114.648C35.7422 114.648 31.1523 119.336 31.1523 125C31.1523 130.664 35.7422 135.352 41.5039 135.352ZM225.586 141.895C216.309 141.895 208.691 134.277 208.691 125C208.691 115.723 216.309 108.105 225.586 108.105C234.961 108.105 242.578 115.723 242.578 125C242.578 134.277 234.961 141.895 225.586 141.895ZM225.586 135.352C231.348 135.352 235.938 130.664 235.938 125C235.938 119.336 231.348 114.648 225.586 114.648C219.922 114.648 215.234 119.336 215.234 125C215.234 130.664 219.922 135.352 225.586 135.352Z" fill="black" fill-opacity="0.2125"/>
 </g>
</svg>
