<svg
  xmlns="http://www.w3.org/2000/svg"
  width="1536"
  height="1024"
  viewBox="0 0 1536 1024"
>
  <style>
    .A {
      fill: #fdcf72;
    }
    .B {
      fill: #1e2223;
    }
    .C {
      fill: #303537;
    }
    .D {
      fill: #606464;
    }
  </style>
  <path class="B" d="M0 0L1536 0L1536 1024L0 1024L0 0Z" />
  <path
    class="C"
    d="M878.352 266.647L1104.73 266.624C1125.4 266.618 1228.46 264.857 1237.1 268.135C1238.92 268.827 1240.17 271.134 1240.9 272.831C1245.47 283.411 1242.06 302.849 1238.11 313.067C1252.96 313.039 1271.56 311.977 1285.88 315.624C1297.52 318.585 1307.86 327.794 1313.59 338.312C1324.05 357.51 1317.86 374.566 1312.17 393.782C1339.56 384.246 1367.72 376.42 1395.09 366.801C1401.33 364.611 1413.83 359.282 1418.24 366.947C1417.87 370.506 1414.41 372.633 1411.28 373.782C1399.85 377.974 1388.08 381.462 1376.48 385.181L1307.38 407.327C1292.87 436.913 1280.17 453.982 1254.72 474.714L1330.92 448.506C1339.37 445.66 1365.55 435.43 1375.24 435.572C1379.17 435.629 1382.18 444.944 1373.79 447.43C1369.45 448.717 1361.74 451.378 1356.59 453.138L1311.23 468.371L1171.31 514.567C1151.74 548.04 1128.65 568.322 1092.01 582.094C1091.94 614.004 1097.19 664.527 1135.21 675.748C1144.41 678.464 1157.81 675.086 1165.49 682.645C1171.27 688.337 1170.97 698.708 1170.98 705.959C1180.72 705.925 1197.16 703.751 1204.01 710.997C1211.56 718.984 1209.08 743.096 1209.08 754.114L1209.02 825.038C1216.2 825.084 1230.17 823.616 1236.81 826.392C1240.67 828.007 1239.36 838.007 1233.73 838.024C1223.33 838.055 1212.77 837.955 1202.29 837.956L1121.28 837.961L955.166 837.975L902.135 837.868C895.323 837.89 871.151 841.374 871.124 831.211C871.099 821.905 894.938 824.913 901.42 825.021L901.315 730.99C901.328 702.034 915.498 705.597 938.968 705.929C938.388 673.952 949.737 679.028 975.623 675.68C981.853 674.874 991.154 668.637 995.51 664.024C1016.81 641.471 1018.5 610.601 1018.36 581.406C1010.8 578.789 1003.83 575.542 996.638 572.066C969.865 582.295 938.871 592.33 911.562 601.87L742.515 659.971C742.484 680.582 733.658 692.557 712.371 693.116L672.293 693.007C664.023 692.987 654.643 692.045 646.581 693.849C624.471 698.798 502.072 747.343 493.872 745.176C491.582 744.571 489.932 743.266 488.833 741.269C489.696 732.402 523.886 723.563 532.395 720.581L609.774 693.285L356.363 693.588L280.055 693.703C267.49 693.728 252.346 694.742 240.168 693.154C219.414 690.447 217.204 671.762 217.116 655.633L217.048 438.919L216.971 371.136C216.952 359.576 216.651 347.781 217.34 336.407C218.028 325.047 229.464 312.93 240.794 312.369C256.943 311.57 273.953 311.966 290.172 311.98L386.693 311.993L699.816 311.93C712.661 311.928 724.6 310.424 734.157 320.39C737.347 323.717 741.036 329.178 741.422 333.754C742.89 351.148 742.298 370.816 742.357 388.363L742.341 505.805C766.293 497.655 791.301 491.222 815.345 483.244C819.276 481.939 821.835 483.436 823.6 486.855C824.101 490.283 822.748 492.76 819.431 494.049C811.203 497.246 802.516 499.68 794.069 502.302L742.408 518.403C743.092 560.646 742.473 604.848 742.487 647.238L983.496 563.771C958.449 545.046 949.516 532.41 933.327 505.666C904.139 508.484 861.175 481.298 840.918 461.672C814.593 436.168 794.775 398.206 791.098 361.594C789.969 350.347 796.955 335.115 804.969 327.638C822.643 309.451 849.111 313.066 872.601 313.032C868.591 303.588 868.004 293.963 868.158 283.86C868.283 275.679 869.018 268.353 878.352 266.647Z"
  />
  <path
    class="B"
    d="M229.773 392.284L729.729 392.274L729.765 580.599L729.694 637.561C729.679 647.527 729.829 658.125 729.262 668.082C729.054 671.728 727.085 674.083 724.898 676.865C720.176 680.47 716.26 680.878 710.467 680.907C678.194 681.069 645.845 681.006 613.578 681.01L426.897 681.029L305.443 681.02C285.371 681.016 265.284 681.109 245.216 680.887C237.947 680.806 230.724 675.655 230.214 668.042C229.525 657.766 229.796 647.24 229.797 636.918L229.836 578.88L229.773 392.284Z"
  />
  <path
    class="C"
    d="M582.895 430.745C615.439 428.559 631.971 465.876 604.823 489.431C613.315 502.767 624.822 518.445 633.974 531.678C667.267 520.231 691.511 557.311 672.157 581.43C644.978 615.299 592.623 575.883 623.752 538.247C614.202 524.862 603.945 508.54 593.8 495.344C592.734 493.958 590.104 494.602 588.175 494.761C584.455 495.416 578.837 493.9 575.266 492.971L545.088 536.603C579.853 571.193 528.849 617.997 498.486 582.559C493.992 576.786 489.743 564.955 491.525 557.68C497.03 535.197 512.973 527.152 534.236 530.763C543.922 516.186 554.828 501.064 564.865 486.619C546.529 464.627 554.132 436.515 582.895 430.745Z"
  />
  <path
    class="B"
    d="M519.327 542.129C530.352 539.596 541.338 546.503 543.836 557.539C546.333 568.575 539.393 579.541 528.351 582.003C517.36 584.455 506.457 577.551 503.971 566.565C501.485 555.579 508.352 544.652 519.327 542.129Z"
  />
  <path
    class="B"
    d="M644.562 541.489C655.619 540.532 665.377 548.674 666.418 559.726C667.459 570.778 659.393 580.6 648.352 581.724C637.193 582.861 627.244 574.687 626.192 563.517C625.14 552.346 633.387 542.457 644.562 541.489Z"
  />
  <path
    class="B"
    d="M581.019 443.861C587.91 441.875 595.336 443.763 600.444 448.799C605.551 453.835 607.545 461.235 605.66 468.156C603.774 475.077 598.302 480.442 591.347 482.19C580.845 484.829 570.167 478.56 567.349 468.103C564.531 457.645 570.613 446.858 581.019 443.861Z"
  />
  <path
    class="D"
    d="M308.444 637.001C352.866 635.836 402.492 636.919 447.296 636.922L502.826 636.985C513.026 636.914 537.932 634.911 547.573 639.562C548.983 640.242 548.97 642.236 548.943 643.725C547.444 646.699 547.233 647.075 544.53 649.105C530.094 649.654 512.56 649.238 497.957 649.255L408.871 649.338L350.766 649.352C340.977 649.43 315.139 651.552 305.871 646.589C304.473 645.84 304.488 643.594 304.465 642.064C305.66 639.296 306.134 638.987 308.444 637.001Z"
  />
  <path
    class="D"
    d="M276.149 492.429C320.318 492.848 365.312 492.381 409.522 492.347L447.487 492.325C453.002 492.324 467.699 491.26 471.388 494.56C474.087 498.862 471.763 501.855 468.483 504.709C435.385 505.678 398.365 504.867 364.998 504.856L313.925 504.773C304.52 504.833 277.346 507.233 271.813 501.288C270.25 496.541 271.815 494.552 276.149 492.429Z"
  />
  <path
    class="D"
    d="M307.992 419.478C349.223 418.147 391.762 420.221 433.125 419.483C440.704 419.348 442.476 426.324 436.612 431.547C432.951 432.164 428.379 432.026 424.626 432.02C387.252 431.958 349.852 432.351 312.484 431.884C303.872 431.777 302.048 425.402 307.992 419.478Z"
  />
  <path
    class="D"
    d="M307.87 562.598C347.521 560.866 389.429 563.897 429.284 562.816C433.207 562.709 438.369 562.638 441.187 565.563C443.034 569.606 441.268 572.669 437.814 574.952C418.084 576.109 386.485 575.022 365.999 574.983L329.595 574.914C324.541 574.908 309.824 576.047 305.811 572.875C302.314 570.112 304.846 565.433 307.87 562.598Z"
  />
  <path
    class="D"
    d="M310.623 599.001C340.349 598.374 370.459 599.339 400.219 598.823C403.691 598.763 412.072 598.356 413.421 602.42C415.054 607.34 413.135 609.693 408.839 611.52C384.074 611.526 335.326 612.338 308.139 610.864C305.604 610.727 300.661 601.441 310.623 599.001Z"
  />
  <path
    class="C"
    d="M277.369 560.3C279.978 560.84 280.438 560.748 282.251 562.517C284.61 567.065 283.213 588.294 283.159 594.559C281.158 596.264 278.577 598.154 276.454 599.788L282.966 604.207C283.227 613.167 283.236 622.161 283.292 631.127C286.41 634.305 288.005 635.714 286.077 640.026C283.697 641.931 283.056 641.928 280.008 642.423C267.385 636.966 271.083 617.929 271.204 606.094C266.993 604.027 263.439 603.022 264.212 597.883C265.863 595.164 268.5 594.012 271.283 592.408C271.217 582.268 267.546 565.738 277.369 560.3Z"
  />
  <path
    class="D"
    d="M310.389 456.441C331.224 456.485 352.533 456.316 373.388 456.483C376.488 456.508 379.171 457.035 381.262 459.434C383.134 463.731 381.238 466.385 377.726 468.771C359.215 469.095 327.931 469.606 308.493 468.018C305.73 467.792 301.446 459.451 310.389 456.441Z"
  />
  <path
    class="C"
    d="M276.642 409.518C279.28 409.932 279.674 409.831 281.644 411.456C284.428 416.153 283.156 427.384 283.121 433.622L275.909 439.424L282.995 443.699C283.345 451.008 283.134 458.519 283.027 465.854C285.659 468.39 287.559 469.694 286.96 473.64C285.609 476.1 284.917 476.265 282.336 477.495C267.658 472.958 270.971 458.112 271.287 445.692C260.873 440.202 261.083 437.069 271.292 431.808C271.074 423.379 268.975 414.711 276.642 409.518Z"
  />
  <path
    class="D"
    d="M327.763 528.327C340.093 528.324 383.888 525.814 391.511 531.235C394.062 535.528 391.966 537.129 388.309 540.041C371.347 540.135 354.386 540.188 337.426 540.221C329.88 540.235 315.088 537.084 327.763 528.327Z"
  />
  <path
    class="A"
    d="M911.051 340.712C946.022 341.77 985.793 340.895 1020.98 340.899L1200.9 340.789C1195.52 406.671 1189.6 469.31 1149.8 524.69C1104.81 584.065 1028.4 592.217 973.942 539.792C922.681 490.449 912.334 408.766 911.051 340.712Z"
  />
  <path
    class="A"
    d="M917.171 718.984L1113.64 718.951L1162.87 718.963C1171.53 718.967 1187.16 718.452 1195.12 720.204C1196.58 723.778 1196.94 820.451 1195.73 824.508L1194.12 825.058L914.018 825.082L914.014 752.39C914.007 743.071 913.775 732.153 914.343 722.812C914.476 720.615 915.733 720.009 917.171 718.984Z"
  />
  <path
    class="C"
    d="M988.935 745.004C1029.68 743.19 1072.23 745.615 1113.14 744.81C1121.28 743.881 1126.04 748.236 1124.52 756.818C1122.59 767.727 1128.28 794.867 1120.47 801.481C1119.38 801.572 1118.07 801.707 1116.97 801.708C1076.98 801.749 1036.96 801.986 996.97 801.667C995.527 801.655 988.634 801.113 987.996 799.884C983.116 790.026 987.16 776.885 985.76 765.796C985 759.775 984.696 749.579 988.935 745.004Z"
  />
  <path
    class="A"
    d="M998.374 757.155L1111.59 757.074L1111.51 789.021L998.317 789.017L998.374 757.155Z"
  />
  <path
    class="D"
    d="M240.587 324.977C243.068 324.698 246.489 324.494 248.984 324.495C280.055 324.51 311.139 324.615 342.208 324.633L536.966 324.663L651.179 324.627C670.964 324.616 690.729 324.647 710.587 324.768C729.459 324.882 729.981 334.308 730.055 350.904C730.098 360.385 729.939 370.227 729.904 379.781L719.855 379.757L229.577 379.781C229.615 374.054 229.121 367.82 229.435 362.198C230.248 347.633 224.799 332.667 240.587 324.977Z"
  />
  <path
    class="C"
    d="M295.384 344.707C299.951 342.705 305.275 344.798 307.257 349.375C309.239 353.952 307.124 359.268 302.54 361.231C297.984 363.182 292.708 361.082 290.738 356.533C288.767 351.984 290.845 346.697 295.384 344.707Z"
  />
  <path
    class="C"
    d="M329.704 344.649C332.743 343.518 336.156 344.118 338.628 346.216C341.1 348.315 342.246 351.586 341.625 354.769C341.003 357.953 338.711 360.552 335.631 361.566C330.993 363.094 325.985 360.626 324.37 356.016C322.755 351.406 325.127 346.352 329.704 344.649Z"
  />
  <path
    class="C"
    d="M262.562 343.93C267.239 342.385 272.282 344.928 273.822 349.607C275.362 354.287 272.816 359.328 268.136 360.865C263.462 362.399 258.429 359.856 256.891 355.183C255.353 350.509 257.891 345.472 262.562 343.93Z"
  />
  <path
    class="A"
    d="M880.422 279.738L1230.15 279.767C1230.18 297.184 1231.06 306.938 1218.04 320.14C1204.89 330.384 1184.4 327.533 1168.17 327.511L1106.75 327.443L922.315 327.538C909.333 327.474 900.085 328.013 890.341 317.899C879.809 306.966 880.32 293.745 880.422 279.738Z"
  />
  <path
    class="B"
    d="M844.161 325.144C855.352 324.67 868.704 324.966 880.071 324.974C886.341 331.438 890.82 334.463 899.083 337.814C899.129 391.285 906.023 444.701 927.417 494.043C916.367 491.429 908.817 489.028 898.281 484.852C848.366 461.755 812.029 419.335 803.926 363.733C802.677 355.161 807.521 343.035 813.333 336.754C822.194 327.178 831.939 325.785 844.161 325.144Z"
  />
  <path
    class="B"
    d="M1230.65 324.959C1245.88 324.892 1268.73 323.393 1283.34 327.736C1298.38 332.209 1308.15 350.404 1306.42 365.51C1305.25 375.698 1300.85 388.374 1297.19 398.533L1259.95 410.231C1240.88 416.56 1221.4 422.545 1202.22 428.614C1207.76 398.843 1211.28 367.866 1213.17 337.654C1221.86 333.327 1223.94 331.567 1230.65 324.959Z"
  />
  <path
    class="A"
    d="M1030.69 584.808C1048.85 588.047 1061.43 588.248 1079.69 585.471L1079.69 586.203C1079.98 620.265 1085.1 652.019 1110.39 676.837L1081.88 676.897L1000.77 676.792L1001.07 676.5C1027.09 650.566 1030.58 619.547 1030.69 584.808Z"
  />
  <path
    class="B"
    d="M1289.11 413.493L1289.6 414.026C1289 416.319 1286.26 420.561 1284.82 422.742C1259.37 461.276 1227.81 484.479 1182.99 494.201L1182.5 493.867C1182.26 491.845 1187.19 481.106 1188.29 478.144C1192.67 466.254 1195.96 454.469 1199.18 442.219C1227.95 434.15 1260.57 423.081 1289.11 413.493Z"
  />
  <path
    class="A"
    d="M958.499 689.756L1092.56 689.752C1111.67 689.742 1134.79 689.014 1154 690.495C1158.42 690.836 1159.79 700.409 1158.32 704.402C1156.27 706.433 1156.45 705.812 1152.94 705.948L951.634 705.964C951.458 698.339 949.602 691.598 958.499 689.756Z"
  />
  <path
    class="C"
    d="M909.869 527.475C922.34 525.842 917.627 538.528 909.23 541.117C905.688 542.209 901.795 543.216 898.286 544.35L870.595 553.485L769.867 586.263C765.689 586.311 764.667 586 762.596 582.324C762.282 577.565 766.839 574.828 770.921 573.42C786.345 568.102 801.965 563.269 817.473 558.179L909.869 527.475Z"
  />
  <path
    class="C"
    d="M324.656 168.771C327.669 168.738 328.478 168.607 331.226 169.979C333.27 172.034 334.048 174.453 333.045 177.141C326.884 193.648 308.869 278.196 301.153 286.949C290.215 288.376 291.698 278.445 294.263 272.318C300.357 257.759 317.379 176.681 324.656 168.771Z"
  />
  <path
    class="C"
    d="M354.707 722.32C357.924 722.511 358.8 722.465 361.414 724.284C363.052 726.526 363.349 728.752 362.365 731.31C356.718 745.984 338.384 818.31 330.473 825.152C327.381 825.049 326.655 824.965 324.109 823.317C323.25 821.974 322.162 820.576 322.647 818.832C331.272 787.832 341.709 757.133 351.462 726.446C351.952 724.906 353.536 723.344 354.707 722.32Z"
  />
  <path
    class="C"
    d="M350.111 196.245C357.464 196.345 367.654 205.454 373.785 209.637C378.896 213.124 395.537 222.42 397.472 227.79C396.315 235.396 364.81 256.549 357.732 261.992C349.93 268.254 344.341 259.35 349.127 254.405C358.062 245.173 370.219 236.866 380.584 228.993C370.456 222.261 359.326 215.285 349.651 207.871C344.363 203.819 346.408 200.369 350.111 196.245Z"
  />
  <path
    class="C"
    d="M263.692 197.146C268.082 197.326 270.503 198.552 271.157 202.912C269.219 210.634 245.067 224.656 237.114 229.927C244.714 235.17 270.405 250.397 271.537 258.266C270.677 262.97 267.657 263.588 263.406 263.122C255.657 257.744 226.917 239.664 222.45 233.81C221.229 232.21 220.721 230.515 221.132 228.562C222.231 223.324 257.779 201.179 263.692 197.146Z"
  />
  <path
    class="C"
    d="M384.01 742.469C391.268 743.216 404.3 754.984 411.058 759.131C415.146 761.641 425.582 767.445 426.781 772.086C425.371 779.688 396.403 797.821 387.91 804.4C382.77 806.997 378.738 806.768 377.653 800.378C379.684 792.267 401.468 779.067 409.516 773.393C400.801 766.909 389.376 761.068 381.614 753.491C377.173 749.156 379.781 745.563 384.01 742.469Z"
  />
  <path
    class="C"
    d="M306.369 741.018C316.186 741.385 314.843 749.281 308.866 753.872C299.514 761.055 289.334 767.543 279.516 774.119C286.888 779.097 306.716 790.72 309.413 798.18C308.989 803.297 306.088 804.442 301.401 804.445C293.861 798.899 263.839 781.364 263.061 773.24C264.48 768.95 270.154 765.735 273.841 763.362C284.879 756.26 295.148 747.801 306.369 741.018Z"
  />
  <path
    class="C"
    d="M1163.22 156.736C1166.31 156.52 1168.19 156.544 1170.71 158.314C1172.79 161.214 1172.1 164.961 1170.84 167.985C1166.77 177.712 1154.78 225.958 1148.79 231.565C1145.7 232.04 1144.33 231.692 1141.74 230.095C1141.12 229.148 1139.78 227.457 1140.14 226.349C1144.09 214.35 1156.76 163.536 1163.22 156.736Z"
  />
  <path
    class="C"
    d="M1057.33 152.082C1061.3 152.226 1064.6 153.094 1065.39 157.57C1069.18 178.972 1073.61 200.357 1076.79 221.846C1077.09 223.865 1074.61 226.236 1073.34 227.64C1070.7 227.635 1068.12 227.698 1066.16 225.689C1063.86 223.324 1053.44 164.111 1053.6 158.056C1053.67 155.263 1055.45 153.877 1057.33 152.082Z"
  />
  <path
    class="C"
    d="M948.877 180.462C951.412 181.31 952.911 181.985 954.619 184.16C967.064 200.007 980.51 215.205 992.414 231.442C993.736 233.245 993.429 234.389 993.301 236.422C992.079 238.96 990.788 239.578 988.503 241.133C983.647 240.201 981.143 236.635 978.14 232.94C967.924 220.366 957.547 207.873 947.661 195.037C942.407 188.217 941.464 185.328 948.877 180.462Z"
  />
  <path
    class="C"
    d="M1193.74 568.619C1199.43 569.559 1236.71 585.469 1242.81 590.393C1244.05 591.392 1244.26 593.606 1244.16 595.295C1243.16 597.878 1241.86 598.694 1239.78 600.445C1231.83 598.279 1198.67 583.859 1190.79 578.352C1189.57 577.505 1189.43 575.083 1189.56 573.478C1190.82 570.734 1191.31 570.459 1193.74 568.619Z"
  />
</svg>
