<svg
  xmlns="http://www.w3.org/2000/svg"
  width="1536"
  height="1024"
  viewBox="0 0 1536 1024"
>
  <style>
    .A {
      fill: #fdcf72;
    }
    .B {
      fill: #1e2223;
    }
    .C {
      fill: #303537;
    }
    .D {
      fill: #606464;
    }
  </style>
  <path class="B" d="M0 0L1536 0L1536 1024L0 1024L0 0Z" />
  <path
    class="C"
    d="M276.117 202.007C293.671 200.963 294.922 212.183 300.178 224.505C304.879 235.528 310.047 221.33 317.242 241.74C332.1 241.173 336.778 244.096 341.419 258.7C344.633 268.813 347.807 279.127 351.036 289.243C358.051 287.08 366.954 287.243 374.36 287.055C374.294 277.735 374.09 268.279 374.247 258.972C375.004 214.128 408.465 217.722 441.005 217.876L490.602 217.938L656.809 217.922L779.278 217.853C786.359 217.835 793.502 217.723 800.572 217.794C814.485 218.079 828.944 217.033 842.776 218.289C860.418 219.891 875.592 236.953 875.927 254.498C876.19 268.219 876.114 281.79 876.112 295.432L876.105 369.88L876.119 600.324L876.098 758.39L876.077 805.641C876.062 829.197 879.695 853.221 855.79 867.102C848.324 871.438 842.332 872.442 833.827 872.74L415.722 873.108C371.633 872.771 374.126 843.978 374.516 810.267C365.142 810.304 356.507 810.724 349.416 803.59C342.02 796.15 342.151 784.55 349.545 777.208C356.472 770.329 365.603 771.626 374.557 771.691L374.61 738.37L374.149 738.368C364.521 738.309 356.851 738.525 349.65 731.108C342.584 723.831 341.87 712.81 349.633 705.735C356.89 699.12 365.586 700.101 374.618 700.362L374.594 659.494C365.863 659.451 356.84 660.562 350.112 653.751C343.041 646.595 342.082 634.494 349.641 627.236C356.128 621.008 363.746 621.762 372.081 621.889L286.381 360.302L264.026 291.352C260.177 279.532 256.231 267.718 252.571 255.842C250.569 249.347 253.053 246.242 258.189 243.021C250.333 222.137 250.033 206.679 276.117 202.007Z"
  />
  <path
    class="B"
    d="M409.788 229.838C435.024 228.746 467.428 229.716 493.287 229.732L655.924 229.787L778.769 229.692C799.018 229.676 819.328 229.485 839.56 229.876C847.18 230.755 854.301 234.783 858.714 240.78C864.762 248.998 864.124 254.633 864.184 264.395L864.195 654.269L864.157 777.06L864.134 814.331C864.123 828.662 866.283 841.324 855.419 852.302C844.313 863.526 825.872 860.966 811.214 860.958L764.657 860.915L600.563 861.004L466.077 861.128L428.184 861.26C422.761 861.278 417.324 861.278 411.902 861.221C381.007 860.897 386.615 832.572 386.736 810.208C395.503 810.453 405.67 811.869 412.542 805.255C420.352 797.737 420.628 785.204 412.997 777.452C406.065 770.41 395.853 771.818 386.796 771.944L386.696 738.383C396.165 738.448 406.207 739.774 413.838 732.707C419.378 727.577 419.159 720.041 416.838 713.374C416.175 711.469 414.349 709.42 414.385 707.731C420.725 712.364 420.557 722.59 430.397 722.016C435.687 721.708 440.478 755.027 451.641 743.854C456.445 739.045 449.221 723.044 449.189 716.128C449.739 715.194 450.281 714.259 450.766 713.289C453.19 708.435 451.839 659.996 450.34 653.165C447.208 638.894 437.928 615.801 433.127 600.988L390.84 472.037C399.229 472.095 405.827 472.837 412.499 466.819C420.248 459.829 420.788 447.654 413.511 440.212C406.956 433.508 395.179 434.957 386.663 434.994L386.553 394.145C396.146 394.524 407.069 395.672 414.521 388.196C421.856 380.836 420.386 369.216 413.067 362.46C406.077 356.008 395.481 357.639 386.615 357.937L386.611 325.485C396.592 325.588 407.054 326.761 414.669 318.75C421.908 311.136 420.278 299.453 413.111 292.448C406.281 285.772 395.446 287.68 386.606 288.026C386.875 264.839 379.541 234.445 409.788 229.838Z"
  />
  <path
    class="C"
    d="M459.875 478.191L688.418 478.012C729.029 478 769.772 478.036 810.392 477.867C811.787 477.836 813.014 478.216 814.276 478.763C817.627 480.218 819.152 484.206 817.018 487.336C815.734 489.22 814.234 489.708 812.062 490.234L537.956 490.432C515.897 490.443 483.186 490.842 460.087 490.173C456.123 490.058 450.493 481.574 459.875 478.191Z"
  />
  <path
    class="C"
    d="M504.339 361.204L709.407 361.057L780.092 361.095C789.589 361.109 799.071 361.129 808.563 360.885C815.901 360.696 822.114 365.12 815.443 371.95C809.915 374.449 778.88 373.386 770.625 373.359L560.536 373.483L490.896 373.425C482.637 373.415 474.297 374.041 466.053 373.755C463.386 373.662 459.894 373.359 457.663 371.793C456.255 370.805 455.331 369.476 455.282 367.715C455.237 366.116 456.124 364.501 457.206 363.387C460.824 359.661 497.281 361.224 504.339 361.204Z"
  />
  <path
    class="C"
    d="M458.607 420.197C482.61 418.826 510.391 420.023 534.724 420.025L678.432 420.018L766.232 419.86C780.231 419.818 794.548 419.734 808.561 419.721C811.13 419.943 815.189 420.607 816.963 422.505C820.167 425.934 817.372 429.32 814.592 431.88C799.656 432.787 776.803 432.089 761.062 432.086L659.013 432.081L526.669 432.084C506.251 432.086 485.681 432.068 465.254 432.216C463.137 432.231 458.462 431.367 456.879 430.086C454.943 428.52 455.216 427.967 454.953 425.836C455.905 422.744 456.246 422.441 458.607 420.197Z"
  />
  <path
    class="C"
    d="M657.274 768.562L764.84 768.387C778.929 768.43 792.984 768.171 807.059 768.228C811.414 768.246 817.809 769.226 818.451 774.307C817.201 777.557 815.087 780.381 811.301 780.413C804.249 780.474 797.171 780.436 790.118 780.434L746.287 780.422L619.125 780.832L509.097 780.953C494.325 780.906 479.581 781.14 464.823 781.056C460.748 781.033 455.912 779.81 454.989 775.374C457.596 766.028 471.874 768.83 479.52 768.84L520.815 768.821L657.274 768.562Z"
  />
  <path
    class="C"
    d="M459.204 594.992C481.661 594.429 506.45 594.906 529.094 594.904L661.948 594.896L762.313 594.885C777.575 594.882 792.998 594.854 808.273 594.756C810.283 594.743 815.021 595.668 816.519 596.958C818.392 598.569 818.121 599.055 818.345 601.169C817.353 604.195 817.03 604.488 814.682 606.668C797.801 607.614 774.229 606.936 756.948 606.931L650.282 606.922L524.472 606.941C505.131 606.946 485.799 606.951 466.46 607.098C458.37 607.159 450.884 602.71 459.204 594.992Z"
  />
  <path
    class="C"
    d="M461.274 536.708C545.455 535.798 631.564 536.787 715.843 536.796L785.1 536.77C793.096 536.759 803.514 536.205 811.372 536.862C818.185 537.431 821.688 543.896 813.604 548.605C783.92 548.592 463.205 550.003 458.952 548.11C457.257 547.355 455.735 546.088 455.2 544.247C454.781 542.807 454.976 541.223 455.73 539.93C457.024 537.709 458.906 537.244 461.274 536.708Z"
  />
  <path
    class="C"
    d="M770.459 302.699C779.312 302.726 808.757 301.48 815.151 303.788C818.459 306.581 818.431 309.217 816.307 312.647C811.436 315.908 787.601 314.575 780.68 314.581L713.227 314.645L504.187 314.856C490.595 314.847 477.077 314.932 463.505 315.226C459.362 315.316 455.162 312.045 454.632 307.758C455.949 303.541 458.577 303.301 462.682 303.154C474.921 302.716 487.234 302.906 499.486 302.918L564.073 302.916L770.459 302.699Z"
  />
  <path
    class="C"
    d="M666.767 653.033L771.589 652.888C780.87 652.895 814.016 650.097 818.677 657.298C818.846 661.506 815.972 664.851 811.636 664.914C804.678 665.016 797.705 664.963 790.744 664.964L747.75 664.963L614.812 665.087L514.057 665.202C500.53 665.168 487.034 665.496 473.528 665.363C470.148 665.33 462.905 663.915 463.291 659.466C463.458 657.539 464.36 656.411 465.652 655.024C466.861 653.726 468.294 653.447 470.056 653.239C491.206 653.33 512.652 653.252 533.768 653.229L666.767 653.033Z"
  />
  <path
    class="C"
    d="M710.59 710.807C723.148 710.681 812.518 709.423 815.793 711.828C817.327 712.955 818.039 714.591 818.224 716.455C818.364 717.865 817.906 719.218 816.952 720.24C815.261 722.053 812.323 722.578 809.948 722.771C803.601 723.288 796.777 722.578 790.359 722.608L738.771 722.775L577.875 723.053L507.87 723.069C498.752 723.079 489.711 723.198 480.6 723.394C476.949 723.472 471.959 720.784 470.789 717.042C471.885 712.989 474.246 711.425 478.471 711.276C487.222 710.966 496.019 711.098 504.781 711.092L554.048 711.054L710.59 710.807Z"
  />
  <path
    class="D"
    d="M367.421 443.474L369.04 443.148C369.434 443.38 369.827 443.613 370.221 443.845C388.815 501.631 420.555 599.853 438.153 653.625L400.152 665.328L399.301 665.072C397.668 662.492 394.53 651.611 393.327 647.971L378.584 602.684L330.158 455.228C342.453 450.97 354.972 447.265 367.421 443.474Z"
  />
  <path
    class="D"
    d="M303.29 238.54L304.838 239.095C306.941 242.87 307.222 245.674 308.569 249.623C329.078 309.745 346.689 371.101 366.542 431.43L327.9 443.413C324.855 442.921 320.999 427.075 319.817 423.472L307.223 385.268L264.572 252.322C277.302 247.521 290.43 243.047 303.29 238.54Z"
  />
  <path
    class="D"
    d="M438.585 665.543L439.159 666.069C440.01 670.892 439.815 701.402 439.89 708.241L431.783 711.12C428.555 706.713 424.988 702.181 421.656 697.82L404.064 676.416L438.585 665.543Z"
  />
  <path
    class="B"
    d="M320.91 253.11C322.48 253.366 323.917 253.614 325.371 254.289C330.814 256.817 360.434 361.777 366.775 378.065C368.193 381.709 370.497 381.19 373.187 382.927C375.379 384.343 374.457 411.38 374.449 415.942C372.151 412.065 362.026 379.785 360.139 373.83C347.294 333.287 334.698 293.378 320.91 253.11Z"
  />
  <path
    class="B"
    d="M356.578 299.596C362.39 299.486 368.559 299.598 374.403 299.605C374.13 318.727 374.389 338.326 374.327 357.505L373.333 358.147C367.511 344.71 360.434 317.332 355.692 302.606C355.204 301.09 355.811 300.551 356.578 299.596Z"
  />
  <path
    class="B"
    d="M386.457 665.978C388.373 667.314 389.946 676.638 392.171 679.696C398.81 688.819 406.826 698.344 414.032 706.924C412.36 706.088 410.227 704.356 408.197 703.35C401.613 700.089 393.899 700.489 386.703 700.411C386.713 688.899 386.745 677.49 386.457 665.978Z"
  />
  <path
    class="B"
    d="M386.538 299.56C395.063 299.391 414.252 297.342 405.08 311.999C399.597 314.336 392.515 313.286 386.499 312.899L386.538 299.56Z"
  />
  <path
    class="B"
    d="M386.651 712.085C396.088 712.175 411.044 710.848 404.949 725.223C400.511 727.758 392.011 726.875 386.652 726.769L386.651 712.085Z"
  />
  <path
    class="B"
    d="M386.783 783.89C395.78 783.645 412.116 781.722 404.892 796.191C399.889 799.112 392.709 798.164 386.737 798.029L386.783 783.89Z"
  />
  <path
    class="B"
    d="M386.645 447.052C396.049 446.888 412.287 443.889 404.451 458.426C399.13 461.586 393.414 460.621 387.12 460.445C386.633 456.265 386.701 451.317 386.645 447.052Z"
  />
  <path
    class="B"
    d="M360.881 633.42C365.057 633.243 370.265 633.649 374.515 633.863C374.44 637.533 375.603 644.759 373.4 647.429L370.687 647.659C364.512 647.857 354.042 646.98 355.737 638.096C357.635 635.538 357.979 634.928 360.881 633.42Z"
  />
  <path
    class="B"
    d="M360.521 712.037L374.675 712.032C374.706 715.411 375.058 723.314 374.23 726.179L372.776 726.658C363.035 726.963 348.347 722.851 360.521 712.037Z"
  />
  <path
    class="B"
    d="M386.623 369.861C394.276 369.705 414.971 367.763 404.743 381.584C400.246 382.919 391.588 382.271 386.615 382.118L386.623 369.861Z"
  />
  <path
    class="B"
    d="M359.749 784.069L374.574 783.872C374.59 787.499 375.079 794.587 373.869 797.632L372.187 798.049C363.087 798.305 347.606 794.837 359.749 784.069Z"
  />
  <path
    class="C"
    d="M1063.16 198.367C1153.82 198.715 1207.38 293.631 1160.18 371.697C1142.27 401.334 1123.01 398.745 1118.83 440.022C1122.49 442.921 1123.03 443.412 1125.65 447.251C1126.26 459.162 1130 475.558 1116.56 480.615C1113.98 501.519 1105.19 509.025 1085.37 514.351C1081.33 520.393 1079.53 520.749 1072.69 521.161C1062.63 521.076 1052.94 524.228 1047.16 514.293C1026.36 509.315 1020.09 500.75 1015.42 480.816C1015.46 480.982 1011.08 478.833 1010.22 477.683C1004.66 470.278 1006.94 455.446 1007.43 446.821C1009.01 444.65 1010.67 442.952 1012.49 440.997C1012.28 414.195 1001.92 405.485 984.438 387.77C944.516 347.321 944.004 277.785 982.067 235.883C1004.33 211.376 1030.52 200.303 1063.16 198.367Z"
  />
  <path
    class="A"
    d="M1063 210.353C1088.46 208.607 1118.1 221.467 1135.91 239.265C1169.93 273.266 1175.73 328.132 1148.35 367.936C1139.39 382.067 1125.08 390.806 1116.5 405.236C1109.67 416.735 1107.64 426.053 1107.61 438.994L1084.09 438.966C1084.32 412.012 1085.43 385.521 1086.91 358.602C1097.04 357.951 1105.4 356.039 1112.14 347.757C1119.15 339.127 1118.8 324.541 1109.1 317.955C1093.56 307.416 1079.86 319.152 1077.29 335.408C1076.84 338.169 1076.38 344.376 1074.99 346.382L1072.69 346.637L1056.11 346.658C1054.71 330.156 1046.61 303.539 1022.69 318.229C1010.25 325.871 1013.2 347.884 1026.48 353.671C1034.04 356.967 1036.16 357.583 1044.81 358.303C1045.67 386.499 1047.03 410.178 1046.94 438.969L1024.47 439.007C1024.15 406.032 1008.21 396.616 988.845 374.923C975.798 359.476 967.593 339.299 966.307 319.191C962.438 258.663 1003.85 214.971 1063 210.353Z"
  />
  <path
    class="D"
    d="M1019.27 450.954L1113.68 450.94L1113.71 468.09L1019.2 468.106L1019.27 450.954Z"
  />
  <path
    class="D"
    d="M1027.97 480.143L1104.31 480.105C1103.89 487.476 1102.86 490.214 1098.3 495.756C1092.78 500.043 1086.87 502.728 1079.68 502.66C1059.44 502.468 1030.59 508.118 1027.97 480.143Z"
  />
  <path
    class="A"
    d="M1056.77 358.783C1062.74 358.871 1068.91 358.708 1074.9 358.63C1073.56 386.221 1072.51 410.328 1073.05 437.88L1072.5 438.523C1069.61 439.359 1061.61 439.013 1058.2 438.986C1058.67 410.658 1058.03 386.888 1056.77 358.783Z"
  />
  <path
    class="A"
    d="M1094.84 326.224C1108.82 324.952 1108.47 338.176 1097.78 344.935C1095.31 345.647 1090.58 346.252 1087.86 346.677L1088.05 343.433C1088.52 335.338 1088.52 331.874 1094.84 326.224Z"
  />
  <path
    class="A"
    d="M1030.4 326.277C1038.63 325.386 1041.34 330.127 1043.38 337.606C1043.94 339.689 1044.34 344.104 1043.21 345.97L1041.57 346.313C1030.6 344.777 1019.08 336.156 1030.4 326.277Z"
  />
  <path
    class="C"
    d="M1190.92 541.846C1247.8 537.61 1256.48 619.07 1200.71 626.384C1187.65 628.097 1176.83 623.224 1166.77 615.147L1108.36 665.222C1124.35 686.303 1125.44 710.628 1112.1 733.328C1126.46 743.781 1143.72 757.391 1157.6 768.547C1190.66 727.573 1253.09 767.518 1234.83 813.936C1212.33 871.136 1128.32 839.316 1151.22 778.672L1104.92 742.819C1082.92 762.905 1056.39 766.685 1030.27 751.123C1026.25 748.734 1022.31 743.212 1017.96 740.988L949.866 794.728C942.929 800.214 924.055 819.091 916.029 816.162C913.406 812.952 913.094 809.003 916.484 806.291C948.032 781.047 979.826 755.565 1011.8 730.903C991.405 689.754 1014.37 647.113 1060.52 643.279L1060.49 620.064C1028.21 607.996 1032.24 567.411 1059.48 559.269C1097.73 547.839 1119.53 609.137 1072.43 620.408L1072.37 643.994C1083.9 646.404 1090.93 649.862 1100.28 656.75C1119.18 639.804 1140.01 622.079 1159.49 605.769C1143.92 577.723 1159.46 547.168 1190.92 541.846Z"
  />
  <path
    class="B"
    d="M1058.42 655.243C1084.16 652.928 1106.91 671.914 1109.24 697.659C1111.57 723.404 1092.6 746.17 1066.87 748.521C1041.1 750.874 1018.32 731.881 1015.98 706.11C1013.65 680.34 1032.65 657.56 1058.42 655.243Z"
  />
  <path
    class="B"
    d="M1185.41 765.195C1203.44 761.307 1221.22 772.773 1225.12 790.811C1229.02 808.849 1217.56 826.634 1199.53 830.545C1181.49 834.459 1163.68 822.992 1159.78 804.938C1155.88 786.884 1167.36 769.086 1185.41 765.195Z"
  />
  <path
    class="B"
    d="M1192.8 553.942C1209.44 552.206 1224.36 564.208 1226.23 580.831C1228.11 597.454 1216.24 612.48 1199.63 614.495C1182.83 616.534 1167.59 604.484 1165.69 587.663C1163.8 570.842 1175.97 555.698 1192.8 553.942Z"
  />
  <path
    class="B"
    d="M1064.61 570.641C1071.4 569.29 1078.4 571.717 1082.9 576.987C1087.4 582.257 1088.71 589.548 1086.31 596.052C1083.92 602.556 1078.2 607.259 1071.35 608.35C1061.05 609.993 1051.33 603.081 1049.49 592.806C1047.65 582.532 1054.37 572.676 1064.61 570.641Z"
  />
  <path
    class="C"
    d="M1058.86 116.113C1059.81 116.061 1060.77 116.015 1061.72 116.026C1063.75 116.049 1065.12 116.48 1066.51 118.002C1069.48 121.256 1068.42 160.923 1068.06 167.737C1067.83 171.967 1067.63 173.75 1064.35 176.706C1056.96 176.86 1055.44 173.669 1055.34 166.881C1055.33 156.491 1055.09 146.02 1055.3 135.633C1055.43 128.881 1054.1 121.256 1058.86 116.113Z"
  />
  <path
    class="C"
    d="M1167.78 146.026C1171.46 146.493 1177.01 149.495 1175.12 152.855C1169.78 162.337 1151.35 188.189 1143.73 194.315C1139.73 194.056 1134.31 191.185 1136.28 187.638C1141.4 178.432 1160.23 151.815 1167.78 146.026Z"
  />
  <path
    class="C"
    d="M962.914 148.257C965.103 148.602 967.209 149.17 968.629 150.927C973.69 157.194 997.041 182.38 997.169 188.869C996.444 191.68 995.185 192.502 993.083 194.429C990.17 194.347 988.373 193.852 986.444 191.527C979.346 182.899 972.237 174.247 965.241 165.536C962.814 162.515 958.196 157.649 958.595 153.686C958.845 151.208 961.083 149.687 962.914 148.257Z"
  />
</svg>
