<?xml version="1.0" encoding="utf-8" ?><svg xmlns="http://www.w3.org/2000/svg" xmlns:xlink="http://www.w3.org/1999/xlink" width="1536" height="1024" viewBox="0 0 1536 1024"><path fill="#1E2223" d="M0 0L1536 0L1536 1024L0 1024L0 0Z"/><path fill="#303537" d="M244.244 408.152C274.781 406.815 305.923 408.041 336.513 408.044L517.572 408.048L675.542 408.033L727.052 408.034C736.033 408.035 745.234 407.659 754.191 408.174C756.716 408.319 757.463 408.753 759.423 410.264C759.822 411.35 760.087 412.426 760.212 413.579C761.792 428.115 760.652 443.929 760.648 458.574L760.644 547.269L760.663 664.861C760.665 684.285 761.731 704.271 760.509 723.621C760.329 726.486 759.8 727.469 758.059 729.634C747.083 730.374 735.725 729.8 724.713 729.8L660.881 729.8L462.243 729.789L319.274 729.793C296.17 729.804 264.974 731.541 242.729 728.669C241.632 727.107 241.752 724.618 241.646 722.713C240.668 705.219 241.506 687.206 241.51 669.673L241.541 565.502L241.514 467.676C241.479 449.914 240.631 431.747 241.657 414.026C241.808 411.432 242.515 410.089 244.244 408.152Z"/><path fill="#1E2223" d="M250.632 417.133L751.578 417.126C750.118 518.252 752.849 619.484 751.437 720.611C731.22 721.392 710.829 720.844 690.586 720.846L578.241 720.809L250.617 720.728L250.632 417.133Z"/><path fill="#303537" d="M297.341 449.473C321.171 448.746 345.214 449.391 369.063 449.387L512.112 449.396L635.657 449.359C657.447 449.354 679.48 448.686 701.238 449.549C703.732 449.648 706.014 450.002 708.323 450.994C712.314 452.709 715.966 455.687 717.481 459.857C718.851 463.628 719.346 467.988 719.51 471.975C720.045 484.943 719.58 498.104 719.575 511.095L719.54 586.806L719.484 638.022C719.587 649.526 720.304 661.356 719.617 672.836C719.392 676.593 718.628 680.348 716.911 683.722C714.074 689.298 709.86 691.949 704.047 693.819C684.995 694.778 665.53 694.005 646.432 694.001L538.155 693.985L379.395 694C354.195 693.997 328.832 694.588 303.647 694.037C300.599 693.97 296.913 694.024 294.09 692.774C289.791 690.87 285.327 687.215 283.812 682.656C279.97 671.097 281.956 628.603 281.96 614.729L282.116 517.091C282.155 501.398 280.984 485.343 281.891 469.713C282.094 466.21 282.814 462.732 284.395 459.58C287.288 453.816 291.379 451.41 297.341 449.473Z"/><path fill="#1E2223" d="M291.092 503.305L710.338 503.295C709.83 543.257 710.278 583.285 710.322 623.253C710.339 637.986 711.732 662.503 709.978 675.786C709.657 678.22 708.757 679.835 707.405 681.826C703.5 684.296 699.408 684.21 694.961 684.32C667.13 685.009 639.134 684.389 611.289 684.378L454.69 684.384L352.175 684.409C334.933 684.412 317.056 685.376 299.87 684.219C297.507 684.06 295.294 683.305 293.661 681.486C291.54 679.124 291.416 672.942 291.234 669.879C290.122 651.152 291.069 631.785 291.083 612.997L291.092 503.305Z"/><path fill="#303537" d="M324.895 525.235C357.841 524.099 391.161 525.122 424.144 525.117C449.524 525.114 477.115 523.825 502.213 525.22C505.695 525.413 509.101 525.81 512.348 527.133C513.46 528.832 513.431 531.57 513.512 533.566C514.426 556.253 513.379 579.296 513.46 602.02C513.521 618.989 515.08 638.403 513.438 655.118C513.144 658.12 512.628 659.684 510.223 661.672C509.571 661.787 508.917 661.886 508.261 661.968C501.36 662.834 493.722 662.216 486.725 662.218L442.906 662.222L371.568 662.21C359.125 662.205 346.502 662.679 334.086 662.06C331.283 661.92 324.502 661.579 322.382 659.529C321.213 658.398 321.377 548.382 321.527 538.142C321.599 533.215 321.09 528.911 324.895 525.235Z"/><path fill="#1E2223" d="M330.618 534.111L504.088 534.14L504.143 648.148C491.384 635.338 479.514 621.396 467.087 608.226C464.324 605.237 461.578 602.218 458.723 599.318C456.258 596.815 453.036 593.821 449.286 593.983C443.352 594.241 434.176 606.511 430.123 610.755C421.962 603.181 394.619 573.056 387.234 570.334C384.279 570.638 382.006 572.155 379.798 574.049C374.269 578.793 369.52 585.057 364.681 590.53C353.47 603.21 342.507 616.288 330.732 628.443L330.618 534.111Z"/><path fill="#303537" d="M464.689 545.838C475.781 543.093 486.99 549.896 489.676 561.006C492.362 572.115 485.501 583.29 474.38 585.918C463.342 588.526 452.272 581.725 449.606 570.699C446.94 559.673 453.68 548.563 464.689 545.838Z"/><path fill="#1E2223" d="M466.619 554.699C472.572 553.054 478.76 556.405 480.638 562.29C482.515 568.175 479.41 574.492 473.605 576.599C469.642 578.038 465.209 577.192 462.054 574.395C458.899 571.597 457.527 567.297 458.479 563.189C459.431 559.08 462.555 555.823 466.619 554.699Z"/><path fill="#1E2223" d="M385.72 580.406C390.911 582.784 414.715 608.38 421.063 614.507C423.75 617.101 427.416 620.292 431.362 620.138C436.106 619.953 446.08 606.783 449.454 602.993C465.902 618.91 480.977 636.406 496.949 652.823C484.702 653.678 472.22 653.212 459.938 653.181L330.622 653.09L330.745 641.318C349.272 621.197 367.598 600.892 385.72 580.406Z"/><path fill="#303537" d="M546.162 603.377C559.271 602.971 671.778 602.362 674.604 604.44C676.249 605.65 676.266 606.587 676.518 608.43C675.916 610.562 675.245 611.452 673.514 612.822C659.665 613.214 548.472 614.147 545.07 612.06C543.303 610.976 543.141 610.206 542.765 608.333C543.321 605.908 544.29 604.954 546.162 603.377Z"/><path fill="#303537" d="M552.088 569.001L633.448 569.131C644.827 569.13 657.119 567.864 668.37 569.077C671.276 569.391 673.919 569.932 676.084 572.027C676.693 574.131 676.54 574.449 675.85 576.556C674.112 577.984 673.672 578.112 671.438 578.464L583.578 578.493C574.497 578.516 554.963 579.903 546.818 578.155C544.659 577.691 544.271 576.998 543.116 575.301C542.88 573.203 543.148 572.223 544.237 570.422C546.564 568.791 549.346 569.073 552.088 569.001Z"/><path fill="#303537" d="M544.996 534.156C567.389 532.688 591.215 533.985 613.761 533.981C633.058 533.977 654.636 532.507 673.697 534.375C675.429 535.487 675.719 535.697 676.587 537.546C676.522 539.835 675.898 540.883 674.512 542.67C665.972 543.856 551.342 543.947 546.24 542.558C544.279 542.024 543.914 541.345 542.98 539.72C542.973 537.234 543.507 536.122 544.996 534.156Z"/><path fill="#303537" d="M544.9 638.441C563.461 637.77 582.26 638.347 600.845 638.335C612.476 638.328 624.886 637.381 636.413 638.449C638.286 638.622 639.568 638.856 641.085 640.049C642.11 642.093 642.127 642.428 641.871 644.709C640.779 646.382 639.913 646.95 638.068 647.682C622.696 648.944 606.469 647.864 590.987 647.864C576.311 647.864 560.141 649.242 545.676 647.347C543.997 646.385 543.436 645.832 542.663 644.046C542.693 641.61 543.507 640.386 544.9 638.441Z"/><path fill="#1E2223" d="M301.168 458.651L571.475 458.708L651.811 458.679C667.523 458.645 683.418 458.144 699.112 458.842C701.336 458.941 704.614 458.835 706.369 460.425C706.534 460.574 706.68 460.743 706.837 460.901C707.643 461.707 708.357 462.477 708.903 463.493C711.352 468.042 711.177 487.616 709.667 492.918C707.987 494.589 706.735 494.187 704.49 494.256L291.163 494.3C291.218 485.702 288.475 469.741 293.346 462.523C295.331 459.582 297.934 459.171 301.168 458.651Z"/><path fill="#303537" d="M317.01 470.021C319.588 469.086 322.471 469.645 324.513 471.475C326.555 473.305 327.426 476.109 326.779 478.774C326.132 481.44 324.073 483.533 321.42 484.223C317.573 485.224 313.618 483.024 312.439 479.227C311.26 475.429 313.273 471.376 317.01 470.021Z"/><path fill="#303537" d="M345.74 469.986C348.274 468.939 351.179 469.38 353.289 471.13C355.399 472.881 356.369 475.654 355.81 478.339C355.25 481.023 353.253 483.178 350.62 483.94C346.845 485.031 342.876 482.982 341.579 479.272C340.282 475.562 342.109 471.486 345.74 469.986Z"/><path fill="#303537" d="M283.96 150.298C292.707 149.414 301.883 149.45 310.533 151.046C331.919 155.142 350.795 167.584 362.993 185.625C382.294 213.675 383.266 252.434 364.229 280.837C354.35 295.577 342.771 299.849 339.412 319.395C338.835 322.753 338.492 325.879 340.578 328.79C342.452 329.789 343.895 330.436 345.023 332.286C345.189 338.939 340.997 335.819 339.625 339.408C336.818 346.75 337.119 355.544 333.649 364.64L643.031 364.715L731.266 364.627C745.13 364.606 760.538 363.291 774.189 365.002C780.966 365.851 787.059 368.91 791.901 373.722C797.219 379.008 801.48 387.136 802.583 394.579C804.386 406.738 803.28 420.276 803.263 432.605L803.216 503.175L803.229 747.315C811.612 747.401 841.159 745.184 847.091 749.044C848.357 750.584 848.906 751.888 849.191 753.869C850.782 764.956 845.549 779.981 838.94 788.613C830.784 799.264 821.158 804.182 808.049 805.82C798.304 807.038 787.929 806.421 778.102 806.416L727.864 806.383L560.469 806.351L317.716 806.356L240.193 806.426C226.319 806.436 212.034 807.127 198.204 806.166C187.725 805.437 178.88 802.791 170.555 796.266C159.495 787.599 153.675 775.752 152.076 761.938C151.625 758.047 150.936 752.757 153.795 749.587C155.342 747.871 157.6 747.256 159.806 746.933C164.782 746.206 170.5 747.22 175.547 747.341C183.27 747.527 191.03 747.369 198.756 747.335C198.23 712.741 198.695 678.073 198.685 643.472L209.217 655.805C209.486 676.122 209.264 696.48 209.276 716.8L209.231 747.342C274.863 746.425 340.635 747.276 406.279 747.276L792.674 747.29L792.635 508.398L792.65 436.154C792.649 423.863 793.511 410.77 792.165 398.564C791.535 392.839 789.166 386.895 785.079 382.756C781.157 378.785 776.137 376.712 770.629 376.181C755.238 374.697 738.689 375.834 723.179 375.838L628.315 375.855L327.851 375.906C325.017 379.358 322.11 382.827 318.672 385.698C310.574 392.461 301.105 396.008 290.491 394.905C277.418 393.546 269.061 385.585 261.079 375.928C248.785 375.785 227.375 372.808 217.895 381.99C213.99 385.773 211.186 391.407 210.121 396.712C207.718 408.693 209.228 423.157 209.252 435.484C209.305 463.115 209.864 490.897 209.102 518.509C205.835 510.402 201.318 501.452 199.465 492.889C197.514 483.874 198.642 472.834 198.64 463.615L198.669 409.907C198.708 395.884 199.543 384.121 210.234 373.711C222.14 362.119 239.873 364.519 255.084 364.693C251.759 356.158 251.289 347.651 248.967 338.941C247.117 337.726 245.881 336.909 244.79 334.954C244.887 331.137 247.041 331.021 249.147 328.201C250.838 325.939 250.364 322.077 249.84 319.453C245.736 298.897 231.589 293.395 221.613 276.88C216.092 267.74 212.867 256.182 211.493 245.601C208.557 222.991 214.333 199.387 228.421 181.315C242.063 163.813 262.072 153.094 283.96 150.298Z"/><path fill="#1E2223" d="M580.975 758.413L838.541 758.452C837.932 763.234 837.223 767.716 835.817 772.349C834.644 775.19 833.239 777.943 831.426 780.434C826.462 787.259 818.803 792.831 810.348 794.189C802.026 795.525 792.985 795.001 784.569 795.01L743.438 795.013L598.416 794.984L334.857 795.021L251.054 794.991C235.315 795.001 219.321 795.583 203.607 794.795C193.766 794.301 185.673 793.566 177.536 787.435C167.726 780.045 164.258 770.093 162.609 758.434L421.266 758.453C424.376 766.004 428.691 773.2 436.528 776.519C440.559 778.226 445.431 778.897 449.762 779.235C466.951 780.574 485.071 779.509 502.36 779.493C519.048 779.478 536.337 780.491 552.935 779.276C556.854 778.989 561.007 778.441 564.668 776.953C573.382 773.411 577.562 766.808 580.975 758.413Z"/><path fill="#DFAD58" d="M288.428 160.083C292.574 159.78 296.737 159.803 300.88 160.151C320.221 161.862 338.102 171.152 350.624 185.996C371.852 211.135 373.78 249.502 355.294 276.71C349.215 285.657 339.987 291.89 334.955 301.606C330.432 310.338 329.279 319.588 328.471 329.221L314.064 329.226L314.091 273.257C320.608 272.162 327.045 270.797 332.427 266.726C336.177 263.889 338.922 259.917 339.426 255.149C339.917 250.515 338.121 245.847 335.169 242.321C332.072 238.62 327.635 236.033 322.779 235.652C318.55 235.321 313.807 236.7 310.648 239.581C304.356 245.321 304.214 254.225 304.047 262.096L302.863 263.119L283.713 263.559C283.929 256.59 284.256 249.736 280.456 243.533C278.211 239.868 274.644 237.109 270.404 236.231C265.809 235.279 261.258 236.303 257.378 238.885C253.091 241.738 249.655 246.274 248.723 251.405C247.969 255.552 248.933 259.587 251.337 263.012C256.503 270.371 266.35 271.943 274.548 273.344L274.572 329.251L260.176 329.217C258.935 284.608 225.673 288.776 220.958 242.48C218.922 222.489 224.592 201.644 237.466 186.087C250.64 170.166 268.155 162.105 288.428 160.083Z"/><path fill="#1E2223" d="M430.694 758.508C477.537 757.392 524.676 758.464 571.55 758.455C570.134 761.106 568.501 763.338 566.655 765.694C566.107 766.101 565.548 766.476 564.959 766.822C562.151 768.474 559.486 769.787 556.205 770.132C544.51 771.36 451.488 771.444 443.669 769.326C437.37 767.619 433.916 763.978 430.694 758.508Z"/><path fill="#DFAD58" d="M300.49 272.659C302.221 272.545 302.999 272.173 304.425 273.224C306.05 289.902 304.66 312.029 304.711 329.289L288.562 329.25C287.008 329.337 286.003 329.372 284.536 328.705C282.589 320.718 284.038 283.987 284.058 273.132C289.542 273.134 295.013 272.886 300.49 272.659Z"/><path fill="#1E2223" d="M263.156 360.246C283.99 359.832 304.922 360.185 325.766 360.177C323.138 365.558 319.841 370.27 316.223 375.006C313.199 378.065 310.021 380.901 306.169 382.886C299.92 386.107 292.809 386.762 286.129 384.499C274.64 380.606 268.262 370.544 263.156 360.246Z"/><path fill="#303537" d="M285.178 370.736C286.366 370.627 287.556 370.544 288.748 370.487C292.875 370.279 299.643 369.215 302.85 372.121C303.224 374.137 303.036 374.206 302.109 375.924C300.973 376.294 299.824 376.654 298.65 376.886C295.287 377.548 290.002 377.958 287.194 375.735C285.27 374.212 285.396 373.002 285.178 370.736Z"/><path fill="#1E2223" d="M258.736 338.496L329.983 338.45C329.532 342.618 328.95 346.721 328.219 350.849C322.527 352.321 313.766 351.238 307.768 351.227L260.091 351.102C259.522 346.913 259.07 342.71 258.736 338.496Z"/><path fill="#DFAD58" d="M320.038 244.486C323.336 245.155 326.924 246.562 328.863 249.482C329.93 251.058 330.255 253.022 329.752 254.858C328.756 258.448 325.275 260.026 322.233 261.551C319.459 262.313 316.59 262.868 313.783 263.505C313.593 260.013 313.22 256.127 313.917 252.677C314.749 248.562 316.695 246.657 320.038 244.486Z"/><path fill="#DFAD58" d="M264.239 245.21C266.475 244.962 268.598 245.068 270.379 246.588C272.994 248.82 274.5 252.766 274.738 256.154C274.914 258.668 274.666 261.058 272.974 262.981L269.949 262.831L269.461 262.674C265.818 261.468 262.021 260.532 259.475 257.412C258.296 255.967 257.652 254.297 258.006 252.423C258.657 248.978 261.606 247.107 264.239 245.21Z"/><path fill="#303537" d="M471.711 132.894C473.829 132.784 475.948 132.698 478.068 132.635C495.946 132.145 513.933 132.6 531.823 132.609L634.551 132.612L692.368 132.575C702.73 132.57 713.669 131.86 723.949 133.103C730.796 133.93 735.591 135.429 740.601 140.311C748.994 148.487 749.932 157.638 749.971 168.733L750.014 246.97C750.007 259.6 751.623 276.442 748.894 288.539C747.705 293.809 744.849 298.291 741.044 302.062C728.797 314.202 709.072 311.133 693.188 311.048C644.512 311.205 595.623 309.975 546.979 311.256C540.58 316.881 506.93 346.152 501.598 346.39C499.88 346.466 497.991 345.711 496.783 344.495C491.958 339.635 494.327 317.64 494.411 311.017C483.98 311.091 471.899 312.252 462.424 307.093C455.518 303.332 451.159 297.38 449.018 289.91C445.869 278.929 447.611 234.057 447.611 220.512C447.61 200.562 446.301 179.629 447.965 159.779C448.343 155.266 449.005 151.175 451.27 147.202C455.735 139.369 463.284 135.223 471.711 132.894Z"/><path fill="#1E2223" d="M472.622 141.993C474.449 141.886 476.278 141.819 478.107 141.793L641.765 141.781L692.987 141.757C702.994 141.755 713.413 141.142 723.347 142.355C728.42 142.974 731.333 143.997 734.958 147.683C737.034 149.794 739.077 152.609 739.888 155.492C742.371 164.315 740.852 197.561 740.863 208.861L740.895 258.379C740.896 267.339 742.048 278.326 739.992 286.982C739.2 290.319 736.687 294.096 734.191 296.44C725.081 304.991 703.918 301.902 692.063 301.801L593.446 301.741C577.622 301.738 560.062 300.205 544.482 302.452C530.596 312.535 517.376 323.834 504.016 334.614C504.038 328.428 505.26 312.117 503.545 307.198C500.401 298.176 476.357 303.514 467.24 299.546C463.67 297.992 460.17 295.076 458.818 291.34C457.584 287.93 457.135 283.755 456.917 280.152C455.739 260.621 456.727 240.41 456.72 220.815C456.714 201.572 455.689 181.683 456.977 162.506C457.22 158.89 457.47 154.854 459.242 151.618C462.092 146.414 467.141 143.65 472.622 141.993Z"/><path fill="#303537" d="M498.852 255.228C519.403 254.878 694.48 254.056 698.291 255.917C700.197 256.848 700.406 257.629 701.05 259.492C700.736 261.941 699.842 262.997 698.159 264.745L566.924 264.739C546.82 264.736 526.278 265.742 506.217 264.892C503.75 264.788 499.882 264.384 497.72 263.162C496.05 262.218 495.907 261.257 495.532 259.57C496.168 257.342 497.044 256.623 498.852 255.228Z"/><path fill="#303537" d="M497.897 183.093C512.733 182.308 527.971 182.976 542.845 182.978L630.395 182.946C639.777 182.939 692.536 181.74 698.138 183.29C699.97 183.797 700.373 184.938 701.166 186.46C701.145 188.833 700.413 190.04 699.186 192.034C688.497 193.189 501.343 192.984 498.373 191.669C496.539 190.856 496.237 190.202 495.513 188.399C495.642 186.005 496.398 184.917 497.897 183.093Z"/><path fill="#303537" d="M634.418 218.692L636.741 219.089C638.329 220.219 638.727 220.912 639.315 222.756C638.99 224.896 638.761 225.329 637.43 227.044C630.306 229.626 518.547 228.074 500.063 228.111C499.6 228.075 499.421 228.089 498.937 227.889C496.913 227.052 496.446 226.029 495.567 224.191C495.714 222.938 495.576 222.177 496.457 221.192C498.074 219.381 501.382 218.99 503.715 218.779C515.92 217.678 529.401 218.855 541.73 218.865C572.626 219.032 603.523 218.974 634.418 218.692Z"/><path fill="#303537" d="M878.911 563.519C889.177 562.897 899.588 563.27 909.877 563.271L963.823 563.257L1009.52 563.258C1018.44 563.259 1027.6 562.853 1036.48 563.599C1040.08 563.902 1043.06 564.594 1046.27 566.322C1052.45 569.65 1057.37 575.077 1059.34 581.866C1062.59 593.071 1061.1 607.083 1061.06 618.699L1060.91 664.385C1060.96 684.685 1062.57 707.535 1060.76 727.535C1060.31 732.484 1059.14 737.145 1056.65 741.474C1052.68 748.365 1047.11 751.854 1039.59 753.875C1031.05 755.139 1021.76 754.504 1013.11 754.498L967.674 754.459L911.562 754.553C901.601 754.57 891.227 755.138 881.313 754.295C876.786 753.91 872.751 752.562 868.849 750.239C862.219 746.291 858.481 739.781 856.73 732.404C854.625 723.534 855.668 712.971 855.665 703.826L855.685 659.409C855.704 637.86 854.312 612.478 855.913 591.424C856.323 586.034 856.978 580.505 859.881 575.837C864.233 568.84 871.172 565.408 878.911 563.519Z"/><path fill="#DFAD58" d="M882.655 572.562C883.202 572.532 883.75 572.517 884.298 572.519L986.291 572.43C1000.79 572.423 1022.64 570.935 1036.48 573.107C1040.31 573.708 1043.65 575.684 1046.35 578.437C1049.07 581.223 1050.42 584.204 1051.06 588.022C1053 599.58 1051.84 612.797 1051.83 624.581C1051.89 647.139 1051.8 669.697 1051.55 692.254C1035.52 676.06 1020.21 659.184 1004.26 642.932C1002.42 641.062 999.262 637.144 996.599 637.213C992.865 637.31 990.348 641.018 988.016 643.557C974.611 657.492 961.464 671.664 947.944 685.491C942.917 679.73 938.583 673.31 933.29 667.781C931.493 665.903 929.402 663.767 926.669 663.687C920.131 666.611 874.868 714.741 865.136 724.409C863.835 699.497 864.879 673.954 864.855 648.977C864.836 629.855 863.424 609.533 865.264 590.534C865.629 586.772 866.324 583.666 868.478 580.494C871.915 575.432 876.885 573.657 882.655 572.562Z"/><path fill="#303537" d="M906.342 591.811C920.015 590.41 932.288 600.229 933.924 613.879C935.56 627.53 925.955 639.972 912.338 641.843C903.319 643.082 894.333 639.358 888.834 632.102C883.334 624.845 882.176 615.185 885.805 606.834C889.434 598.483 897.286 592.739 906.342 591.811Z"/><path fill="#DFAD58" d="M906.232 601.288C914.624 599.881 922.612 605.402 924.266 613.75C925.919 622.099 920.639 630.249 912.345 632.15C906.758 633.43 900.916 631.569 897.097 627.293C893.279 623.017 892.087 617.002 893.987 611.592C895.888 606.183 900.579 602.235 906.232 601.288Z"/><path fill="#DFAD58" d="M996.045 648.549C1000.07 650.486 1043.73 698.337 1051.7 706.201C1051.71 710.037 1051.74 713.872 1051.8 717.708C1051.94 725.404 1052.07 733.766 1046.23 739.63C1043.62 742.275 1040.22 744.006 1036.54 744.569C1024.19 746.523 1007.47 744.938 994.574 744.934L902.625 744.963C896.614 745.05 890.397 745.427 884.403 745.007C876.563 744.459 872.201 741.114 867.172 735.36C887.392 715.526 907.285 695.362 926.845 674.876C932.167 681.082 936.849 688.32 942.783 693.934C943.928 695.017 945.745 696.619 947.359 696.473C953.632 695.91 989.458 655.707 996.045 648.549Z"/><path fill="#303537" d="M79.7953 273.302C83.992 273.689 87.909 274.405 91.4912 276.739C97.6171 280.729 99.3588 286.77 100.887 293.555C102.161 292.912 103.45 292.3 104.753 291.718C107.098 290.688 109.525 290.032 111.976 291.132C116.178 293.02 118.303 300.337 120.043 304.319C125.195 302.027 133.395 297.142 138.992 297.291C139.6 297.731 140.118 298.105 140.543 298.739C144.335 304.391 152.225 327.72 155.586 336.247C164.885 359.835 175.522 383.387 183.783 407.318C184.628 409.766 185.529 412.043 184.851 414.57C184.005 415.492 183.058 416.71 181.873 417.174C180.838 417.579 180.144 417.581 179.132 417.142C177.186 416.299 175.932 413.542 175.042 411.719C169.886 401.151 166.085 389.446 161.714 378.483L134.291 309.636L123.925 314.355C133.987 335.921 141.94 359.207 150.78 381.352L213.659 541.134L213.89 541.691C219.551 555.433 227.518 571.636 230.806 585.939C233.781 598.881 232.96 624.457 233.447 638.763C233.736 647.249 234.797 655.94 234.7 664.397C234.673 666.743 234.442 668.876 233.526 671.066C231.928 672.09 231.981 672.019 230.102 671.682C222.493 665.353 178.02 616.355 173.993 609.348C167.855 598.667 163.769 585.72 159.204 574.264L132.912 508.09L82.2227 381.367C74.0692 361.059 65.4318 340.834 57.6778 320.379C56.9389 318.43 56.3553 316.439 57.0894 314.383C58.2193 311.22 62.158 309.709 64.9435 308.326C63.1064 304.472 61.1707 300.347 60.4696 296.115C59.6183 290.976 60.205 285.703 63.3899 281.43C67.286 276.203 73.6266 274.21 79.7953 273.302Z"/><path fill="#1E2223" d="M107.998 300.021C110.322 301.271 158.33 422.291 164.283 437.928L122.421 455.716L121.591 455.407C117.606 450.648 106.382 418.301 103.115 410.101L66.0364 318.444C80.1536 312.688 94.282 306.682 107.998 300.021Z"/><path fill="#303537" d="M105.693 312.832C108.934 315.996 149.306 419.298 154.439 432.044L125.428 444.267L124.663 443.977C120.731 438.985 112.845 415.238 109.902 407.846C98.7298 380.507 87.7383 353.096 76.9279 325.612C86.3349 321.031 96.1121 317.047 105.693 312.832Z"/><path fill="#1E2223" d="M221.665 587.463C224.036 592.389 225.483 639.719 224.384 646.579C224.146 648.063 224.245 648.566 223.038 649.43C216.573 646.629 209.789 637.026 204.98 631.671C196.888 622.872 188.982 613.904 181.267 604.773C194.304 598.368 208.328 593.329 221.665 587.463Z"/><path fill="#606464" d="M1208.61 334.103C1225.65 331.914 1244.6 336.925 1258.14 347.438C1275.49 360.909 1283.58 382.004 1286.27 403.191C1289.39 427.746 1285.92 457.515 1270.17 477.465C1259.31 491.232 1243.51 499.173 1226.21 501.137C1208.48 503.653 1189.68 500.043 1175.16 489.289C1158.44 476.902 1150 456.784 1147.17 436.675C1143.54 410.804 1147.29 379.763 1163.59 358.521C1174.95 343.705 1190.42 336.513 1208.61 334.103Z"/><path fill="#1E2223" d="M1211.51 365.528C1218.25 364.91 1224.02 365.499 1229.96 369.004C1239.84 374.828 1245.31 386.358 1247.94 397.092C1252.34 415.012 1252.12 440.022 1242.28 455.998C1237.15 464.333 1230.36 468.716 1221.01 471.011C1214.95 471.275 1210.06 471.121 1204.52 468.434C1195.27 463.937 1189.64 454.806 1186.47 445.328C1180.41 427.169 1181.18 400.871 1189.97 383.775C1194.87 374.24 1201.42 368.812 1211.51 365.528Z"/><path fill="#606464" d="M892.46 337.697C914.467 337.642 958.581 334.738 977.998 342.529C987.424 346.311 995.583 352.859 999.522 362.425C1003.73 372.65 1003.4 386.145 998.994 396.25C994.711 406.068 986.731 411.298 977.06 415.029C978.77 415.386 980.468 415.797 982.152 416.26C991.147 418.822 999.17 424.859 1003.62 433.145C1009.81 444.67 1009.05 458.41 1005.35 470.568C1003.31 475.873 1000.35 480.686 996.325 484.707C990.154 490.868 982.206 494.632 973.808 496.695C955.395 501.219 913.865 499.061 892.421 499.082L892.46 337.697Z"/><path fill="#1E2223" d="M927.72 429.795C939.137 429.675 956.37 427.443 965.974 434.419C969.88 437.257 971.981 441.392 972.592 446.1C973.601 453.886 972.039 459.683 967.265 465.827C956.331 474.147 940.664 471.947 927.668 471.841L927.72 429.795Z"/><path fill="#1E2223" d="M927.661 366.059C938.01 366.002 951.657 364.352 960.444 370.813C964.181 373.561 966.247 377.562 966.89 382.095C967.852 388.871 965.993 393.761 961.99 399.144C952.175 406.647 939.324 405.096 927.68 405.013L927.661 366.059Z"/><path fill="#606464" d="M1374.26 334.12C1388.09 333.117 1403.01 335.777 1414.97 342.98C1430.41 352.277 1437.27 367.48 1441.52 384.269C1430.18 387.002 1418.86 389.808 1407.56 392.688C1406.06 387.889 1404.5 383.171 1401.92 378.829C1398.21 372.594 1392.96 367.893 1385.81 366.16C1378.93 364.457 1371.66 365.637 1365.68 369.427C1355.28 376.093 1349.99 389.087 1347.62 400.708C1343.91 418.908 1344.76 442.552 1355.28 458.288C1359.94 465.252 1366.29 469.805 1374.59 471.346C1382.08 472.805 1389.85 471.19 1396.14 466.866C1404.94 460.691 1407.72 452.082 1409.4 441.989L1379.95 441.969L1379.97 414.89L1401.38 414.907L1441.3 414.907L1441.31 499.032L1419.31 499.116C1418.13 492.601 1417.3 485.987 1416.33 479.435C1415.43 480.693 1414.51 481.927 1413.55 483.136C1405.26 493.674 1394.96 499.761 1381.57 501.273C1365.77 503.057 1349.27 499.939 1336.67 489.823C1320 476.435 1312.52 453.869 1310.38 433.216C1307.71 407.414 1311.79 377.182 1328.73 356.585C1340.35 342.461 1356.45 335.932 1374.26 334.12Z"/><path fill="#606464" d="M1034.26 337.65L1069.98 337.695C1069.56 381.403 1069.71 425.19 1070.05 468.901L1132.59 468.862L1132.63 499.092C1099.84 498.653 1067.01 499.064 1034.22 499.069L1034.26 337.65Z"/><path fill="#303537" d="M373.964 107.936C376.028 107.921 377.324 108.052 379.146 109.057C380.091 110.421 380.582 110.92 380.523 112.662C380.297 119.241 361.583 139.712 356.464 144.88C355.041 144.833 353.721 144.341 352.37 143.927C351.083 142.639 350.236 141.974 350.281 139.962C350.416 133.919 369.21 113.378 373.964 107.936Z"/><path fill="#303537" d="M209.421 107.84C210.818 107.863 212.435 107.817 213.601 108.706C218.251 112.25 237.068 134.572 237.809 139.544C237.595 142.02 236.376 143.297 234.816 145.061C233.741 145.014 232.537 144.956 231.557 144.47C227.187 142.304 207.805 117.946 206.426 113.015C206.538 110.674 207.936 109.492 209.421 107.84Z"/><path fill="#303537" d="M290.862 83.0793C292.186 83.1325 293.809 83.0614 295.026 83.623C296.377 84.2458 297.111 85.2811 297.581 86.6648C299.235 91.5302 298.922 123.678 296.696 128.41C294.07 129.029 292.566 129.055 290.202 127.817C289.353 126.752 289.046 125.998 288.873 124.629C288.027 117.915 287.77 93.5371 289.002 86.654C289.249 85.2699 290.004 84.1571 290.862 83.0793Z"/></svg>