<?xml version="1.0" encoding="utf-8" ?><svg xmlns="http://www.w3.org/2000/svg" xmlns:xlink="http://www.w3.org/1999/xlink" width="1536" height="1024" viewBox="0 0 1536 1024"><path fill="#FEFDF9" d="M0 0L1536 0L1536 1024L0 1024L0 0Z"/><path fill="#263032" d="M283.509 145.1C289.649 144.811 296.027 145.331 302.085 146.37C325.043 150.31 345.479 163.251 358.861 182.321C378.538 210.253 382.582 250.65 364.709 280.496C351.533 302.498 336.693 308.109 331.807 336.572C335.808 344.046 335.401 352.804 333.639 360.886C332.524 365.998 326.978 366.542 325.236 370.801C339.513 372.466 355.498 371.157 369.93 371.149L459.546 371.096L764.979 370.809C779.971 370.811 792.468 371.707 803.615 383.054C810.454 390.016 813.681 397.395 814.96 406.981C816.854 421.175 815.751 436.632 815.753 450.978L815.734 531.079L815.748 805.957C825.03 805.928 862.311 804.132 868.29 807.309C869.531 808.588 870.108 809.538 870.442 811.309C872.751 823.583 868.264 839.322 860.945 849.144C853.402 859.336 842.042 866.025 829.472 867.676C818.899 869.154 807.772 868.503 797.116 868.484L744.714 868.398L564.166 868.424L303.103 868.44L219.828 868.462C204.914 868.463 189.392 869.274 174.544 868.043C164.719 867.228 156.876 863.342 149.073 857.522C148.691 857.18 148.313 856.833 147.937 856.484C136.942 846.236 132.427 833.739 131.893 818.988C131.792 816.192 131.466 810.047 133.652 807.965C137.838 803.977 177.121 805.869 185.041 805.914C185.055 766.032 185.856 725.984 184.854 686.121C177.644 677.056 170.261 668.061 163.286 658.815C160.104 654.596 157.836 650.839 156.019 645.866C150.412 630.529 146.063 614.479 141.218 598.879L114.1 511.606L72.6728 377.953C67.0592 359.853 60.8476 341.771 55.5413 323.61C55.0771 322.022 54.8655 320.548 55.1369 318.905C55.5412 316.459 57.586 315.29 59.4553 313.95C57.3786 307.7 54.2456 301.141 55.021 294.409C55.6926 288.579 58.8448 283.49 63.5077 279.985C68.8806 275.973 75.6204 274.246 82.2601 275.18C99.3336 277.751 95.9536 289.272 102.866 298.87L106.491 298.683C111.634 302.043 114.289 317.125 116.022 323.036C121.013 320.339 132.321 312.456 137.6 313.213C139.36 315.847 140.628 318.809 141.703 321.779C148.489 340.532 153.692 360.189 159.598 379.26C163.68 392.442 174.56 422.032 175.273 433.713C174.332 435.396 173.618 436.048 171.871 436.862C170.459 436.88 169.563 437.054 168.289 436.375C166.893 435.631 166.078 434.829 165.469 433.35C161.073 422.666 158.353 410.432 154.916 399.355L132.423 326.651L119.261 333.215C129.562 364.275 138.643 395.827 148.247 427.116L185.05 546.727L184.999 450.165C184.999 436.694 183.456 417.306 185.858 404.304C187.113 397.51 190.609 390.762 195.018 385.488C210.726 366.693 231.094 372.693 252.198 370.823L253.147 370.734C250.252 369.377 247.03 368.675 244.495 366.614C233.88 357.987 242.171 339.3 239.716 327.72C233.776 299.706 201.063 290.658 197.306 243.991C195.139 219.071 203.087 194.326 219.358 175.329C236.053 155.947 258.381 146.972 283.509 145.1Z"/><path fill="#5B6768" d="M719.971 381.467C734.224 381.425 771.211 379.679 782.747 382.519C788.024 383.843 792.846 386.564 796.707 390.398C801.526 395.151 804.293 401.452 805.036 408.159C806.548 421.811 805.447 436.696 805.441 450.48L805.395 533.39L805.435 805.847L238.687 805.945L195.528 806.04L195.549 698.294C198.899 702.599 201.724 706.905 206.9 709.164C208.109 709.083 208.737 709.296 209.654 708.394C210.823 707.242 211.125 705.749 211.357 704.182C212.573 695.952 212.234 639.092 210.84 632.155C206.747 611.778 195.719 593.272 195.554 572.047L195.56 459.863C195.528 446.978 193.994 415.05 196.28 404.618C197.468 399.195 200.767 393.761 204.691 389.879C216.619 378.078 238.794 381.682 254.271 381.811C257.678 387.726 261.695 392.617 267.481 396.368C275.607 401.611 285.496 403.378 294.935 401.272C306.732 398.73 314.36 391.616 320.706 381.739C366.339 382.329 412.06 381.791 457.702 381.774L719.971 381.467Z"/><path fill="#263032" d="M219.433 407.465C234.023 406.856 248.857 407.364 263.474 407.359L349.295 407.331L667.337 407.197C681.571 407.192 777.046 405.984 781.221 407.806C782.257 408.258 782.932 409.086 783.194 410.17C784.891 417.181 783.698 426.863 783.694 434.179L783.679 485.029L783.676 707.424L783.672 761.081C783.674 769.013 784.617 778.443 783.392 786.238C783.185 787.56 782.571 788.643 781.807 789.715C757.683 790.741 733.197 789.938 709.035 789.928L576.705 789.929L228.749 789.902C226.211 789.879 221.394 790.32 219.261 788.872C218.28 788.206 217.914 787.492 217.785 786.305C216.117 771.001 217.418 754.376 217.432 738.946L217.474 645.322L217.456 490.724C217.448 464.967 216.506 438.863 217.509 413.154C217.599 410.855 217.927 409.311 219.433 407.465Z"/><path fill="#FEFDF9" d="M228.053 417.975L773.012 417.544L773.007 779.386L228.008 779.349L228.053 417.975Z"/><path fill="#263032" d="M283.008 453.45L577.272 453.422L669.818 453.303C685.995 453.28 702.607 452.476 718.743 453.488C722.859 453.746 726.495 454.535 729.964 456.872C734.95 460.23 736.652 463.789 737.729 469.559C739.923 481.318 738.704 494.632 738.703 506.601L738.669 573.642L738.673 673.719C738.688 690.641 739.623 708.035 738.56 724.893C738.264 729.598 737.585 734.057 734.829 737.997C730.91 743.599 724.999 745.866 718.529 747.044C687.714 747.645 656.768 747.096 625.94 747.097L444.635 747.101L336.03 747.063C318.982 747.055 301.263 748.204 284.309 747.02C279.137 746.659 274.503 745.479 270.387 742.195C264.589 737.57 263.433 732.224 262.78 725.048C261.518 711.194 262.501 696.489 262.507 682.56L262.57 597.918L262.512 515.332C262.499 501.393 261.549 486.714 262.791 472.867C263.212 468.164 264.333 464.005 267.459 460.346C271.57 455.533 276.906 453.933 283.008 453.45Z"/><path fill="#FEFDF9" d="M272.976 517.403L728.189 517.317L728.248 656.768L728.271 701.287C728.271 709.759 728.675 718.487 727.922 726.921C727.688 729.538 726.86 731.277 725.446 733.419C723.25 735.108 721.346 736.305 718.537 736.507C698.57 737.942 675.997 736.657 655.715 736.646L530.507 736.644L363.049 736.646L307.782 736.569C300.72 736.56 293.535 737.125 286.499 736.84C282.913 736.694 278.127 736.018 275.538 733.28C273.356 730.972 273.18 723.954 273.017 720.874C271.818 698.226 272.925 674.862 272.945 652.148L272.976 517.403Z"/><path fill="#263032" d="M306.272 545.454C340.918 544.188 376.02 545.317 410.709 545.311L469.011 545.305C479.284 545.305 489.704 544.924 499.954 545.415C503.371 545.579 506.762 545.933 509.966 547.191C510.446 548.178 510.676 548.974 510.786 550.066C511.612 558.338 511.059 567.02 511.047 575.356L510.964 622.765L511.045 675.996C511.063 685.01 511.567 694.37 510.953 703.35C510.769 706.031 510.366 706.943 508.727 708.972C469.9 709.676 430.941 709.042 392.097 709.059C366.265 709.071 339.814 710.215 314.061 708.902C311.177 708.755 306.874 708.687 304.479 706.922C303.96 704.925 303.769 703.012 303.697 700.957C302.633 670.45 303.796 639.584 303.722 609.034L303.608 570.71C303.589 564.087 303.083 556.986 303.851 550.423C304.106 548.244 304.798 547.05 306.272 545.454Z"/><path fill="#FEFDF9" d="M314.068 555.999L500.979 555.999L500.978 686.893L460.469 644.782C457.104 641.258 453.691 636.33 448.424 636.091C442.202 635.807 431.539 648.243 426.821 652.376C412.597 637.447 399.15 621.433 384.43 607.035C382.878 605.518 379.39 601.931 377.099 602.082C374.618 602.245 371.657 604.986 369.888 606.619C362.848 613.115 356.59 621.038 350.149 628.149C338.076 641.391 326.07 654.693 314.13 668.055L314.068 555.999Z"/><path fill="#263032" d="M453.853 576.097C465.869 574.181 477.199 582.263 479.303 594.25C481.408 606.237 473.508 617.696 461.558 619.989C453.659 621.505 445.556 618.645 440.358 612.505C435.16 606.366 433.674 597.9 436.47 590.357C439.266 582.813 445.91 577.363 453.853 576.097Z"/><path fill="#FEFDF9" d="M454.406 587.173C460.546 585.543 466.838 589.225 468.426 595.377C470.014 601.529 466.291 607.797 460.13 609.345C454.027 610.877 447.832 607.196 446.259 601.102C444.686 595.009 448.325 588.787 454.406 587.173Z"/><path fill="#FEFDF9" d="M376.515 614.774C379.945 616.451 383.315 621.121 385.935 623.932C392.107 630.555 419.923 663.606 426.652 664.606C434.403 662.499 442.541 652.946 448.643 647.69C465.1 664.441 481.363 681.382 497.428 698.509L453.375 698.507L314.038 698.463L314.081 683.908C333.556 660.178 356.145 637.906 376.515 614.774Z"/><path fill="#263032" d="M544.959 549.18C545.808 549.139 546.658 549.103 547.509 549.073C574.98 548.115 602.818 548.961 630.326 548.956C650.152 548.953 670.814 547.784 690.526 549.147C692.12 549.257 693.694 549.367 694.862 550.6C696.041 551.843 696.566 553.049 696.435 554.792C696.268 557.024 694.83 558.442 693.319 559.921C672.27 561.133 650.541 560.04 629.427 560.036C603.704 560.031 577.714 560.916 552.027 560.053C549.94 559.983 546.055 560.14 544.302 558.874C542.79 557.781 542.146 556.565 542.112 554.694C542.071 552.422 543.556 550.783 544.959 549.18Z"/><path fill="#263032" d="M544.985 633.244C559.316 632.637 689.187 632.089 694.497 634.405C695.755 635.804 696.442 636.455 696.38 638.483C696.308 640.857 694.868 642.382 693.274 643.949C673.326 645.447 652.324 644.18 632.237 644.185C605.609 644.192 578.62 645.179 552.032 644.167C549.946 644.087 546.015 644.214 544.269 642.948C542.733 641.835 542.086 640.612 542.077 638.711C542.066 636.437 543.556 634.829 544.985 633.244Z"/><path fill="#263032" d="M544.883 591.178C556.572 590.468 690.061 590.082 693.441 591.635C695.379 592.525 695.866 593.885 696.45 595.734C696.181 598.264 695.417 599.512 693.843 601.481C680.789 602.904 546.652 602.15 544.629 600.901C543.086 599.949 542.222 598.529 542.137 596.726C542.03 594.472 543.514 592.781 544.883 591.178Z"/><path fill="#263032" d="M545.529 675.259C554.859 674.951 638.076 674.009 642.075 676.234C644.001 677.306 644.335 678.893 644.731 680.836C644.207 683.313 643.328 684.52 641.606 686.346C622.715 687.137 603.574 686.577 584.658 686.602C572.747 686.618 559.929 687.58 548.111 686.427C546.568 686.277 544.966 685.967 543.79 684.873C542.379 683.561 541.901 682.32 542.043 680.389C542.21 678.109 543.941 676.676 545.529 675.259Z"/><path fill="#FEFDF9" d="M281.152 463.722C313.313 462.772 345.727 463.651 377.92 463.65L569.206 463.647L673.126 463.657L703.282 463.645C707.967 463.636 712.948 463.091 717.598 463.621C720.864 463.993 723.948 465.158 725.92 467.916C729.883 473.459 728.84 498.719 727.835 506.164C726.141 507.426 723.191 506.971 721.139 506.947L272.987 507.024C272.971 497.175 270.704 479.084 273.993 470.403C275.41 466.661 277.754 465.333 281.152 463.722Z"/><path fill="#263032" d="M297.956 479.704C301.157 479.562 303.894 481.985 304.143 485.18C304.391 488.375 302.062 491.191 298.878 491.547C296.722 491.788 294.606 490.833 293.358 489.057C292.111 487.281 291.93 484.966 292.888 483.019C293.846 481.071 295.789 479.8 297.956 479.704Z"/><path fill="#263032" d="M347.609 479.765C350.671 479.187 353.659 481.077 354.451 484.092C355.242 487.107 353.568 490.221 350.617 491.222C348.514 491.936 346.188 491.416 344.59 489.875C342.991 488.333 342.385 486.028 343.021 483.9C343.657 481.772 345.427 480.176 347.609 479.765Z"/><path fill="#263032" d="M322.582 479.754C325.686 479.255 328.641 481.267 329.315 484.339C329.989 487.411 328.148 490.476 325.12 491.323C323.002 491.915 320.731 491.287 319.218 489.69C317.706 488.094 317.201 485.792 317.906 483.708C318.611 481.625 320.411 480.103 322.582 479.754Z"/><path fill="#5B6768" d="M588.649 816.317L860.152 816.341C860.077 822.485 859.482 828.214 857.715 834.12C857.529 834.553 857.344 834.987 857.141 835.412C852.583 844.941 845.391 852.293 835.235 855.697C822.275 860.04 758.936 857.992 739.577 857.99L599.414 857.982L327.229 858.008C280.109 858.021 232.843 858.812 185.737 857.97C179.643 857.862 170.607 857.819 165.117 855.094C160.491 852.798 156.382 850.319 152.804 846.529C144.826 838.076 142.468 827.624 142.68 816.318L414.208 816.35C414.71 817.832 415.254 819.299 415.841 820.75C418.539 827.279 423.998 833.216 430.698 835.692C438.588 838.607 546.686 838 561.705 837.2C565.469 837 569.886 836.897 573.37 835.327C581.531 831.651 585.592 824.285 588.649 816.317Z"/><path fill="#FDCF72" d="M279.259 155.559C283.832 154.946 289.085 155.065 293.67 155.508C314.838 157.499 334.298 167.982 347.609 184.565C368.025 209.922 372.437 247.44 355.28 275.682C340.297 300.345 325.253 303.632 321.679 336.923L303.878 336.932L303.872 271.724C310.943 271.8 317.515 271.401 323.535 267.264C327.259 264.705 329.799 261.059 330.534 256.546C331.359 251.486 329.975 246.299 326.998 242.163C323.971 237.958 319.302 234.91 314.141 234.183C309.966 233.595 305.803 234.57 302.476 237.221C295.525 242.757 294.086 251.853 293.056 260.101C289.944 261.767 282.864 260.786 279.22 260.756C278.903 253.011 277.354 244.645 271.834 238.791C268.872 235.649 265.053 234.049 260.755 234.02C255.638 234.008 250.74 236.096 247.205 239.797C243.462 243.669 241.432 248.883 241.571 254.267C241.659 258.586 243.182 262.455 246.34 265.462C252.526 271.352 260.403 271.759 268.41 271.668L268.418 336.897L251.493 336.938C250.365 298.46 213.144 289.347 207.847 246.189C205.086 224.627 211.026 202.853 224.353 185.681C238.183 168.036 257.276 158.23 279.259 155.559Z"/><path fill="#5B6768" d="M146.833 461.377L147.906 461.875C154.075 475.73 159.793 498.668 164.436 513.737L199.7 629.583C188.567 633.932 177.251 637.897 166.058 642.099C163.867 640.352 118.72 492.101 113.093 474.394L146.833 461.377Z"/><path fill="#5B6768" d="M100.583 312.015L101.64 312.255C104.288 315.434 140.375 436.288 145.238 451.558C134.006 455.537 122.891 459.983 111.808 464.359C111.26 464.311 110.558 463.934 110.042 463.731C94.6657 417.993 81.9193 371.326 66.8201 325.479C77.9361 320.679 89.4918 316.95 100.583 312.015Z"/><path fill="#5B6768" d="M425.186 816.415C442.55 815.935 460.035 816.346 477.41 816.343L577.672 816.402C576.269 818.783 574.622 820.982 572.999 823.214C572.347 823.667 571.686 824.107 571.017 824.534C568.603 826.058 566.586 826.751 563.739 826.98C550.998 828.008 442.307 828.092 435.903 826.34C430.534 824.87 427.79 820.988 425.186 816.415Z"/><path fill="#5B6768" d="M265.657 367.203L314.652 367.263C312.274 375.268 309.595 380.366 303.539 386.185C297.478 390.234 290.682 392.249 283.369 391.107C275.202 389.831 268.336 384.672 263.639 378.013C261.554 375.056 260.188 371.816 260.783 368.15C262.214 367.023 263.873 367.288 265.657 367.203Z"/><path fill="#FDCF72" d="M279.032 271.641L293.255 271.669L293.273 336.909L278.985 336.929L279.032 271.641Z"/><path fill="#5B6768" d="M200.909 639.228C202.611 642.081 201.626 671.918 201.619 677.594L193.406 680.911L184.65 669.588L170.283 651.087C180.204 646.686 190.791 643.202 200.909 639.228Z"/><path fill="#5B6768" d="M249.486 347.445L324.149 347.494L323.732 356.989C299.252 357.917 274.397 357.039 249.877 357.045L249.486 347.445Z"/><path fill="#FDCF72" d="M256.698 245.314C258.634 245.144 260.603 244.91 262.393 245.836C265.011 247.191 267.21 250.377 268.052 253.166C268.797 255.633 268.802 257.975 267.604 260.263L265.232 260.939C261.192 260.635 257.722 260.699 254.515 257.795C252.976 256.402 252.152 254.978 252.231 252.864C252.356 249.503 254.461 247.5 256.698 245.314Z"/><path fill="#FDCF72" d="M310.548 245.082C311.631 245.074 312.736 245.079 313.802 245.299C315.887 245.729 318.01 247.126 319.109 248.972C320.092 250.622 320.262 252.778 319.698 254.595C318.772 257.577 316.593 258.937 314.021 260.365C310.551 260.622 307.008 260.559 303.527 260.627C304.479 253.814 305.103 249.777 310.548 245.082Z"/><path fill="#263032" d="M479.789 120.145C481.926 120.071 484.063 120.02 486.2 119.99L657.481 119.962L709.179 119.948C720.112 119.934 731.619 119.176 742.421 120.777C747.955 121.597 752.132 123.741 756.098 127.699C759.702 131.295 762.524 136.137 763.496 141.168C765.663 152.379 764.191 169.179 764.199 180.803L764.164 267.149C764.113 277.82 763.422 286.004 755.356 293.829C743.391 305.437 715.97 301.794 700.125 301.697L565.739 301.731C555.978 311.375 537.463 333.056 527.575 340.117C525.088 341.893 522.007 343.394 518.911 343.524C516.924 343.607 514.917 343.021 513.545 341.525C508.701 336.248 510.848 309.95 510.892 301.695C498.412 301.826 480.921 304.268 469.841 297.618C464.132 294.192 459.493 287.722 457.929 281.258C455.264 270.239 456.876 232.743 456.869 219.144L456.87 173.23C456.877 164.553 456.488 155.649 457.18 147.005C457.583 141.982 458.162 137.187 460.82 132.816C465.1 125.777 471.983 122.008 479.789 120.145Z"/><path fill="#FEFDF9" d="M482.444 130.708C536.056 129.586 589.927 130.651 643.577 130.645L703.471 130.641C714.508 130.641 725.925 130.04 736.909 130.985C741.065 131.343 744.326 131.788 747.622 134.625C752.01 138.402 753.254 142.616 753.612 148.251C755.132 172.19 753.76 199.419 753.772 223.748L753.786 257.556C753.78 263.494 754.214 269.88 753.43 275.754C752.953 279.333 751.311 282.951 748.814 285.578C740.599 294.215 711.089 291.076 699.375 291.001C653.175 290.988 606.929 290.587 560.734 291.117C548.695 301.112 532.823 319.78 521.483 331.691C521.536 322.022 523.366 305.08 521.058 296.259C518.312 285.769 486.601 294.667 475.198 288.064C472.616 286.569 469.993 284.038 469.248 281.08C466.498 270.172 467.66 257.293 467.649 246.085L467.634 195.808C467.64 179.434 466.466 162.098 467.925 145.82C468.176 143.018 468.972 140.6 470.466 138.207C473.286 133.69 477.494 131.848 482.444 130.708Z"/><path fill="#263032" d="M501.535 166.569C510.736 165.613 520.596 166.276 529.854 166.288L582.332 166.345L672.613 166.327C686.646 166.318 700.804 165.835 714.82 166.226C716.818 166.282 719.343 166.473 720.991 167.712C722.484 168.835 723.119 170.241 723.096 172.102C723.068 174.267 721.525 175.877 720.145 177.359C710.983 177.962 701.546 177.485 692.344 177.487L639.68 177.508L549.367 177.518C539.262 177.516 509.04 179.087 501.105 176.473C500.086 175.459 499.352 174.974 499.07 173.467C498.567 170.779 499.998 168.605 501.535 166.569Z"/><path fill="#263032" d="M502.72 204.978C545.963 204.508 589.261 204.95 632.51 204.945C659.319 204.942 686.47 203.951 713.232 204.994C715.946 205.099 718.524 205.123 721.019 206.288C722.316 207.749 723.04 208.405 722.966 210.504C722.882 212.862 721.318 214.453 719.767 216.036C689.848 216.8 659.708 216.099 629.762 216.101C591.019 216.104 552.199 216.634 513.466 216.292C509.942 216.26 502.875 216.194 500.342 213.338C499.334 212.202 499.033 211.115 499.184 209.59C499.38 207.623 501.348 206.173 502.72 204.978Z"/><path fill="#263032" d="M503.315 243.234L598.04 243.15C613.9 243.126 630.781 241.941 646.499 243.423C648.951 243.654 650.69 243.971 652.551 245.713C653.275 247.698 653.647 248.725 652.97 250.861C652.299 252.978 650.67 253.871 648.788 254.763C619.347 255.595 589.662 254.878 560.197 254.904C543.617 254.918 521.531 256.287 505.484 254.55C503.12 254.294 501.651 253.912 499.891 252.27C499.136 250.288 498.902 249.344 499.501 247.188C500.067 245.153 501.588 244.225 503.315 243.234Z"/><path fill="#263032" d="M887.899 591.248C922.815 589.976 958.063 591.031 993.015 591.009L1033.75 590.916C1041.98 590.898 1050.49 590.495 1058.67 591.365C1062.76 591.801 1066.47 593.231 1070.02 595.278C1076.63 599.091 1081.4 605.431 1083.24 612.837C1085.85 623.074 1084.34 636.848 1084.34 647.406L1084.35 708.887L1084.34 753.457C1084.35 761.981 1084.74 770.722 1084.13 779.224C1083.72 785.039 1083.08 790.258 1079.98 795.286C1075.18 803.072 1067.86 807.223 1059.18 809.369C1050.15 810.444 1040.74 809.994 1031.66 810.004L988 810.038L928.375 810.046C917.429 810.043 906.301 810.49 895.387 809.828C890.281 809.518 883.637 808.719 879.028 806.361C872.04 802.787 866.055 794.112 864.168 786.617C862.037 778.153 863.23 766.961 863.224 758.204L863.226 709.49L863.235 652.934C863.223 642.347 862.71 631.43 863.469 620.883C863.862 615.422 864.405 610.197 867.248 605.428C872.068 597.343 879.001 593.538 887.899 591.248Z"/><path fill="#FDCF72" d="M888.193 601.758C889.669 601.666 891.146 601.601 892.624 601.563C928.849 600.919 965.209 601.581 1001.44 601.619C1017.62 601.636 1040.05 599.984 1055.45 601.727C1060.11 602.254 1064.76 603.486 1068.17 606.885C1070.76 609.463 1072.8 612.966 1073.4 616.592C1075.54 629.613 1074.05 644.87 1074.03 658.093L1073.92 743.272L1037.8 699.397C1031.43 691.636 1025.1 682.579 1017.71 675.803C1016.05 674.277 1014.26 673.412 1011.96 673.617C1008.06 673.966 1005.52 678.149 1003.34 680.951L959.873 734.9C953.993 728.31 943.191 711.109 935.249 708.878C932.45 709.315 930.139 711.59 928.214 713.548C921.473 720.405 915.662 728.833 909.629 736.344L873.744 780.989L873.715 675.45C873.708 657.68 872.948 639.615 873.833 621.891C873.994 618.673 874.214 615.348 875.504 612.354C877.915 606.763 882.744 603.839 888.193 601.758Z"/><path fill="#263032" d="M920.325 628.497C933.86 626.073 946.786 635.119 949.148 648.669C951.509 662.219 942.406 675.106 928.849 677.406C915.38 679.691 902.597 670.657 900.25 657.195C897.904 643.733 906.877 630.906 920.325 628.497Z"/><path fill="#FDCF72" d="M921.245 638.205C929.398 636.338 937.534 641.385 939.484 649.52C941.434 657.655 936.471 665.843 928.358 667.877C923.036 669.21 917.408 667.583 913.619 663.614C909.83 659.645 908.464 653.946 910.042 648.69C911.619 643.434 915.897 639.43 921.245 638.205Z"/><path fill="#FDCF72" d="M1012.61 686.128C1015.47 687.044 1067.39 751.606 1073.99 759.71L1074.11 769.124C1074.2 778.185 1074.59 786.967 1067.65 793.845C1064.39 797.082 1058.54 798.134 1054.12 798.614C1039.22 800.228 1023.26 798.991 1008.22 798.986L915.375 798.927C901.508 798.853 889.105 801.76 877.898 791.754C884.939 784.085 891.291 775.511 897.845 767.413L935.143 721.15C940.103 727.271 952.394 745.059 959.036 747.187C961.859 746.663 963.821 745.288 965.893 743.395C971.919 737.889 976.947 730.332 982.095 723.947L1012.61 686.128Z"/><path fill="#263032" d="M1218.45 351.343C1232.61 349.115 1249.36 352.405 1261.24 360.391C1277.31 371.199 1285.57 389.708 1289.09 408.21C1294.35 435.841 1292.83 473.021 1276.39 496.771C1266.69 510.776 1253.66 518.041 1237.16 520.948C1220.6 522.588 1204.58 520.372 1191.04 509.982C1174.79 497.519 1166.7 477.946 1164.11 458.127C1160.46 430.272 1162.36 395.059 1180.25 372.053C1190 359.52 1202.91 353.255 1218.45 351.343Z"/><path fill="#FEFDF9" d="M1222.96 379.778C1228.59 379.542 1233.08 379.547 1238.2 382.111C1246.27 386.151 1251.06 394.222 1253.74 402.55C1259.97 421.865 1260.4 459.029 1250.98 477.202C1246.69 485.475 1241.02 489.677 1232.32 492.49C1226.49 493.225 1220.87 492.771 1215.6 490.028C1207.49 485.809 1202.74 477.706 1200.21 469.192C1194.45 449.827 1194.15 411.958 1204.12 394.168C1208.57 386.218 1214.33 382.181 1222.96 379.778Z"/><path fill="#263032" d="M923.99 353.807L964.211 353.767C974.379 353.767 984.99 353.209 995.023 355.086C1007.28 357.378 1018.65 363.048 1025.7 373.65C1032.59 384.004 1034.46 398.386 1031.88 410.428C1029.61 421.009 1023.91 428.343 1014.97 434.195C1024.03 439.189 1030.75 446.294 1034.24 456.15C1038.98 469.549 1037.44 484.393 1031.38 497.048C1029.67 499.859 1027.59 502.585 1025.26 504.912C1007.89 522.248 981.47 520.445 958.908 520.378C947.262 520.315 935.616 520.336 923.97 520.44L923.99 353.807Z"/><path fill="#FEFDF9" d="M957.044 450.097C969.094 450.018 989.233 447.39 998.493 456.641C1002.3 460.44 1003.28 465.465 1003.27 470.645C1003.27 477.325 1001.81 481.83 997.052 486.628C985.436 494.373 970.37 492.614 957.023 492.501L957.044 450.097Z"/><path fill="#FEFDF9" d="M957.035 381.775C968.58 381.799 984.283 379.834 993.845 387.709C997.583 390.787 999.415 395.101 999.788 399.844C1000.38 407.37 998.94 411.933 993.983 417.618C983.748 425.667 969.319 423.811 957.04 423.693L957.035 381.775Z"/><path fill="#263032" d="M1372.26 350.647C1372.43 350.625 1372.6 350.596 1372.77 350.579C1387.06 349.196 1402.89 353.349 1413.84 362.745C1426.51 373.626 1431.58 388.916 1432.88 405.102L1400.67 405.129C1399.93 400.744 1399.05 396.262 1397.1 392.238C1394.15 386.167 1389.48 382.4 1383.11 380.316C1377.17 378.372 1370.76 378.692 1365.17 381.592C1356.95 385.854 1352.09 394.184 1349.54 402.8C1343.88 421.953 1343.61 459.644 1353.51 477.265C1357.51 484.368 1363.72 489.934 1371.68 492.078C1382.01 494.863 1392.81 492.385 1401.9 487.166L1401.9 458.451L1376.99 458.489C1376.94 449.934 1376.21 440.715 1377.36 432.257C1379.05 431.027 1381.55 431.435 1383.56 431.468L1434.02 431.455L1434.04 501.617C1421.88 513.515 1404.91 519.47 1388.2 521.173C1370.09 523.019 1351.3 520.733 1336.82 508.743C1320.92 495.578 1314.63 474.4 1312.69 454.566C1309.98 426.949 1311.86 392.635 1330.44 370.406C1341.27 357.451 1355.89 352.146 1372.26 350.647Z"/><path fill="#263032" d="M1060.49 353.747C1071.49 353.938 1082.53 353.779 1093.54 353.78L1093.51 489.915L1154.12 489.885L1154.09 519.325L1060.49 519.32L1060.49 353.747Z"/><path fill="#263032" d="M196.246 102.491C200.59 102.823 202.093 104.23 204.952 107.277C209.95 112.602 229.104 132.89 228.941 139.191C228.141 141.418 227.012 142.291 225.185 143.74C223.128 143.558 221.634 143.306 220.015 141.954C214.805 137.603 193.247 113.265 192.928 107.716C193.507 105.425 194.71 104.176 196.246 102.491Z"/><path fill="#263032" d="M372.688 102.547C374.43 102.807 376.436 103.215 377.778 104.458C379.116 105.698 379.372 107.269 379.192 109.011C378.732 113.486 355.066 141.774 350.461 145.494C348.121 145.03 346.692 144.494 344.81 143.014C344.111 141.57 343.652 140.851 343.848 139.184C344.446 134.073 367.951 106.493 372.688 102.547Z"/><path fill="#263032" d="M284.08 72.3984C286.366 72.7726 287.847 73.0649 289.613 74.6231C292.802 80.0162 291.567 111.394 290.782 118.602C290.412 122.002 289.625 123.189 286.942 125.357C285.07 124.923 283.287 124.585 281.96 123.09C278.972 119.723 280.163 87.5895 280.477 81.4435C280.693 77.2307 280.81 75.3498 284.08 72.3984Z"/></svg>