<svg
  xmlns="http://www.w3.org/2000/svg"
  width="1536"
  height="1024"
  viewBox="0 0 1536 1024"
>
  <style>
    .A {
      fill: #fdcf72;
    }
    .B {
      fill: #1e2223;
    }
    .C {
      fill: #303537;
    }
    .D {
      fill: #606464;
    }
  </style>
  <path class="B" d="M0 0L1536 0L1536 1024L0 1024L0 0Z" />
  <path
    class="C"
    d="M780.733 181.646C799.088 180.185 822.128 181.285 840.827 181.281L945.742 181.268L1005.46 181.269C1016.33 181.27 1027.86 180.971 1038.68 181.725C1043.85 182.085 1045.94 182.677 1049.59 186.314C1054.26 190.965 1054.6 194.745 1054.61 201.088C1054.71 243.088 1054.66 285.138 1054.64 327.132L1054.63 365.489C1054.63 378.525 1057.4 398.435 1038.44 401.404C1027.79 403.072 1013.6 402.135 1002.52 402.132L929.146 402.082L929.145 433.924C934.235 433.803 940.409 433.048 945.271 434.642C946.291 434.976 947.941 435.778 948.271 436.886C949.24 440.13 945.912 445.918 944.309 448.64C940.392 455.288 918.988 491.775 913.539 492.702C912.094 492.947 911.138 492.482 910.029 491.604C904.755 487.425 877.275 445.045 876.777 438.982C876.676 437.761 877.167 436.898 878 436.024C881.319 432.541 890.423 433.784 894.879 433.903L894.873 402.067L852.028 402.073L852.027 697.347C859.232 697.35 884.325 695.675 885.722 699.929C892.845 721.626 877.765 751.87 855.303 753.963C831.775 756.157 817.124 755.151 798.057 755.148L683.625 755.105L406.738 755.1L326.955 755.138C312.619 755.164 295.664 755.92 281.652 754.463C259.327 752.143 245.546 731.47 246.387 710.076C246.55 705.903 245.965 702.016 249.212 698.582C253.323 696.328 278.821 697.283 284.977 697.34L285.159 457.797L285.407 388.495C285.494 371.719 282.144 350.692 294.829 338.327C306.238 327.206 318.619 329.363 333.233 329.192C341.943 329.089 350.615 329.202 359.288 329.209L452.826 329.276L767.968 329.271C767.963 311.823 766.302 198.772 769.34 191.368C771.423 186.292 776.039 183.794 780.733 181.646Z"
  />
  <path
    class="B"
    d="M330.778 374.18C379.223 373.319 430.312 374.102 478.939 374.103L767.966 374.086C767.538 404.43 783.281 402.307 807.881 402.069L807.887 665.676C748.233 665.024 687.381 665.643 627.645 665.64L330.769 665.715L330.778 374.18Z"
  />
  <path
    class="C"
    d="M595.386 446.981C599.115 447.061 606.469 449.282 604.832 454.276C598.53 473.506 590.276 492.563 582.761 511.433L562.901 561.283C560.168 568.141 553.046 588.984 548.151 593.073C533.94 594.437 539.055 582.54 542.079 574.968C548.725 558.326 555.361 541.671 561.97 525.014L580.462 478.402C583.501 470.746 589.766 451.706 595.386 446.981Z"
  />
  <path
    class="C"
    d="M631.389 468.791L631.726 468.804C634.763 468.891 636.457 468.862 638.894 471.024C651.07 481.828 662.309 493.825 674.093 505.071C678.588 509.36 685.993 515.927 686.169 522.429C683.734 528.721 644.665 565.375 637.422 571.981C628.44 575.009 624.249 565.869 628.821 561.177C641.79 547.869 655.993 534.445 669.194 521.363L639.905 492.714C635.998 488.878 632.054 485.161 628.603 480.889C624.233 475.479 626.914 472.555 631.389 468.791Z"
  />
  <path
    class="C"
    d="M506.035 468.753C509.057 468.812 511.365 469.016 513.696 471.22C520.905 478.038 505.081 490.187 500.182 494.996L473.463 521.15C487.241 534.865 502.391 548.525 514.744 563.32C518.181 567.436 511.522 571.943 508.149 573.306C502.126 571.226 453.73 523.843 456.813 519.733C465.702 507.881 494.223 476.593 506.035 468.753Z"
  />
  <path
    class="B"
    d="M780.085 246.683C866.611 245.487 955.697 246.746 1042.51 246.622C1042.12 287.133 1042.89 327.767 1042.55 368.289C1042.51 373.044 1042.98 384.181 1039.78 387.707C1033.8 390.756 1014.01 389.575 1006.04 389.481L929.135 389.44C929.198 383.664 930.811 357.279 927.04 353.939C924.096 351.331 912.734 352.29 908.646 352.281C904.643 352.271 899.413 352.255 896.507 355.468C892.768 359.601 894.919 382.447 894.92 389.451C859.131 389 823.202 390.213 787.441 389.107C782.954 388.968 780.397 385.215 780.247 381.099C779.726 366.783 780.126 352.02 780.134 337.716L780.085 246.683Z"
  />
  <path
    class="C"
    d="M846.326 294.242C856.076 293.893 866.37 294.131 876.162 294.152C907.235 294.22 938.346 293.844 969.41 294.313C977.689 294.438 979.508 300.562 973.287 306.033C932.19 307.11 890.355 305.45 849.189 306.046C841.687 306.155 840.374 299.321 846.326 294.242Z"
  />
  <path
    class="D"
    d="M312.837 341.434C327.229 340.481 349.653 341.171 364.588 341.18L461.92 341.202L767.989 341.164L768.025 361.726L480.109 361.687L379.548 361.644C361.919 361.639 344.201 361.452 326.633 361.875C319.907 362.037 319.032 365.685 318.911 371.185C318.589 385.745 318.709 401.614 318.706 416.028L318.706 501.568L318.633 609.882C318.611 629.203 318.486 648.54 318.729 667.856C318.799 673.373 318.932 677.226 325.485 677.346C340.236 677.615 355.005 677.51 369.761 677.513L455.035 677.498L711.655 677.481L778.676 677.554C786.321 677.558 811.193 678.159 817.329 676.41C821.026 671.718 819.888 642.781 819.889 635.608L819.866 577.069L819.825 402.07L839.972 402.084L839.956 697.309L296.973 697.295C296.307 624.66 296.905 550.411 297.184 477.724L297.474 403.528C297.489 389.736 297.363 375.938 297.614 362.15C297.822 350.77 302.779 345.652 312.837 341.434Z"
  />
  <path
    class="D"
    d="M645.985 709.478L874.713 709.374L874.458 718.148C872.288 729.935 863.683 741.945 851.136 742.34C816.712 743.425 781.305 742.913 746.9 742.908L572.523 742.95L388.017 742.932C356.386 742.93 324.75 743.025 293.122 742.866C289.836 742.85 281.302 742.624 278.39 741.48C263.355 735.572 259.254 724.573 258.652 709.444L492.513 709.453C493.528 720.493 497.876 730.793 510.422 732.025C529.56 733.904 549.387 732.856 568.685 733.048C587.309 733.232 606.278 733.272 624.878 732.555C639.592 731.688 644.144 722.498 645.985 709.478Z"
  />
  <path
    class="D"
    d="M781.304 194.493C800.098 193.799 822.413 194.364 841.407 194.365L955.934 194.342L1012.5 194.33C1017.64 194.33 1036.91 193.986 1040.9 195.092C1042.86 199.58 1043.55 230.578 1041.54 234.008L779.996 234.045C780.013 227.471 778.997 198.69 781.304 194.493Z"
  />
  <path
    class="C"
    d="M962.58 206.341C967.33 206.015 970.54 205.496 974.002 209.498C977.733 213.812 975.116 218.401 971.159 221.318C959.513 221.781 952.364 215.496 962.58 206.341Z"
  />
  <path
    class="C"
    d="M1017.48 206.471C1028.95 205.205 1035.51 211.913 1027.11 221.236C1026.07 221.31 1024.98 221.287 1023.97 221.364C1014.05 222.103 1009.26 213.872 1017.48 206.471Z"
  />
  <path
    class="C"
    d="M990.391 206.307C995.587 206.009 1003.55 206.312 1003.13 214.98C1003.03 217.181 1000.71 220.033 998.897 221.335C987.139 221.829 980.407 215.559 990.391 206.307Z"
  />
  <path
    class="B"
    d="M906.952 364.52L917.226 364.536C917.162 388.02 917.101 411.503 917.131 434.986C917.146 447.182 921.319 446.2 931.674 445.99C925.898 454.483 920.027 464.29 914.528 473.057L913.184 474.506C909.854 472.633 896.713 450.478 893.837 445.881C899.302 446.175 906.378 446.913 906.794 439.494C907.271 430.988 907.066 422.435 907.052 413.913L906.952 364.52Z"
  />
  <path
    class="D"
    d="M504.458 709.514C515.675 709.353 631.382 708.934 633.358 710.341C633.346 713.25 632.664 714.491 631.593 717.128C631.111 717.538 630.728 717.852 630.212 718.232L629.613 718.664C628.988 719.121 627.648 720.025 626.888 720.037C589.984 720.582 552.956 720.34 516.033 720.149C507.357 720.104 505.381 717.708 504.458 709.514Z"
  />
  <path
    class="C"
    d="M1163.34 400.872C1210.03 398.304 1235.1 452.572 1201.3 487.78C1226.82 498.8 1244.9 518.971 1248.63 547.119C1249.35 552.478 1250.88 562.606 1247.55 566.975C1242.46 570.36 1183.1 568.925 1173.32 568.912L1173.36 625.26C1173.38 637.057 1174.16 649.78 1172.37 661.34C1171.77 665.167 1161.7 670.439 1158.45 672.253C1136.59 684.46 1114.87 696.994 1092.89 708.982C1120.48 726.201 1151.03 740.762 1178.77 757.886C1186.14 762.431 1185.21 768.132 1177.04 770.494C1170.61 768.749 1133.91 746.611 1125.85 742.118C1111.24 733.628 1096.38 725.649 1081.83 717.055C1075.6 713.372 1071.11 708.109 1079.19 702.838C1088.23 696.934 1098.01 691.859 1107.43 686.57L1160.98 656.303L1160.97 568.857C1137.18 568.921 1112.02 569.724 1088.34 568.18C1082.53 567.801 1084.38 554.692 1084.77 551.107C1088.08 520.491 1104.5 500.138 1132.2 488.029C1101.05 456.603 1118.62 405.485 1163.34 400.872Z"
  />
  <path
    class="D"
    d="M1190.06 496.81C1219.17 507.078 1234.09 525.896 1236.15 556.656L1194.56 556.656L1096.87 556.673C1099.41 526.205 1113.83 507.222 1142.9 497.42C1145.73 496.935 1157.14 501.262 1161.05 501.855C1171.91 503.501 1180.28 500.821 1190.06 496.81Z"
  />
  <path
    class="D"
    d="M1163.9 413.005C1185.07 411.408 1203.51 427.285 1205.09 448.455C1206.66 469.624 1190.77 488.057 1169.6 489.612C1148.47 491.165 1130.07 475.296 1128.5 454.157C1126.92 433.017 1142.77 414.599 1163.9 413.005Z"
  />
  <path
    class="C"
    d="M977.302 562.924C1026.16 562.296 1048.51 615.223 1015.11 651.412C1024.85 654.914 1033.27 659.875 1040.8 667.045C1055.9 681.432 1063.81 701.923 1064.21 722.633C1064.26 725.487 1063.86 728.618 1061.6 730.628C1058.3 733.57 994.79 732.162 985.125 732.146L927.687 732.183C920.115 732.187 907.17 732.651 900.107 731.578C890.368 730.099 898.164 700.792 900.082 695.39C908.222 672.457 922.892 660.815 943.961 650.68C913.261 618.511 931.732 566.815 977.302 562.924Z"
  />
  <path
    class="A"
    d="M954.173 660.187C956.008 660.063 961.675 661.626 963.539 662.248C979.708 667.644 987.712 666.085 1003.56 659.991C1033.44 668.025 1049.37 689.638 1051.92 719.97L1010.94 720L907.907 720.031C909.782 689.755 925.312 669.432 954.173 660.187Z"
  />
  <path
    class="A"
    d="M972.378 575.744C993.649 571.423 1014.37 585.267 1018.52 606.576C1022.67 627.886 1008.67 648.498 987.334 652.486C966.233 656.429 945.901 642.612 941.794 621.536C937.686 600.461 951.341 580.017 972.378 575.744Z"
  />
  <path
    class="C"
    d="M1268.91 627.379C1317.33 621.721 1345.46 678.568 1310.51 715.311C1339.03 727.394 1357.53 754.625 1358.31 785.35C1358.39 788.639 1358.49 790.576 1356.3 793.258C1351.01 796.979 1292.91 795.142 1282.88 795.121L1226.24 795.153C1218.83 795.174 1204.37 795.609 1197.48 794.665C1187.37 793.277 1194.7 765.369 1197.18 758.857C1205.08 738.115 1219.58 724.404 1239.62 715.37C1208.61 684.453 1225.65 634.409 1268.91 627.379Z"
  />
  <path
    class="B"
    d="M1251.67 723.965C1270.05 731.296 1280.46 731.131 1298.57 724.033C1328.3 732.912 1341.98 753.568 1346.57 782.999L1304.06 783.002L1204.26 783.055C1207.43 752.763 1222.79 733.899 1251.67 723.965Z"
  />
  <path
    class="B"
    d="M1270.8 639.595C1292.15 637.188 1311.42 652.494 1313.92 673.834C1316.42 695.175 1301.2 714.52 1279.87 717.109C1258.42 719.714 1238.94 704.378 1236.43 682.909C1233.91 661.439 1249.33 642.017 1270.8 639.595Z"
  />
</svg>
